<svg xmlns="http://www.w3.org/2000/svg" viewBox="0 0 99.21 99.21"><g clip-path="url(#clip-path)" fill="currentColor"><path d="M5.84 88.89h87.53a1.53 1.53 0 0 0 1-.43 1.48 1.48 0 0 0 .43-1 1.46 1.46 0 0 0-.43-1 1.48 1.48 0 0 0-1-.43H5.84a1.46 1.46 0 0 0-1 2.49 1.51 1.51 0 0 0 1 .37z"/><path d="M88.79 86.38 89 32.16a1.49 1.49 0 0 0-1.48-1.45H65a1.5 1.5 0 0 0-1 .43 1.47 1.47 0 0 0-.44 1V86a1.46 1.46 0 0 0 .43 1 1.53 1.53 0 0 0 1 .43A1.5 1.5 0 0 0 66 87a1.42 1.42 0 0 0 .43-1V32.16L65 33.62h22.52l-1.47-1.46-.21 54.22a1.44 1.44 0 0 0 .43 1 1.48 1.48 0 0 0 2.09 0 1.48 1.48 0 0 0 .43-1zM35.7 86.38l.2-60.82a1.5 1.5 0 0 0-.43-1 1.55 1.55 0 0 0-1-.43H11.89a1.5 1.5 0 0 0-1 .43 1.46 1.46 0 0 0-.44 1V86a1.42 1.42 0 0 0 .43 1 1.48 1.48 0 0 0 2.09 0 1.46 1.46 0 0 0 .43-1V25.56L11.89 27h22.54L33 25.56l-.2 60.82a1.45 1.45 0 0 0 .43 1 1.47 1.47 0 0 0 2.08 0 1.46 1.46 0 0 0 .39-1z"/><path d="M66.18 87.44q.09-29.47.21-58.93 0-8.37.07-16.74a1.42 1.42 0 0 0-.44-1 1.47 1.47 0 0 0-1-.44H34.43a1.51 1.51 0 0 0-1 .44 1.47 1.47 0 0 0-.44 1v75.11a1.46 1.46 0 0 0 .43 1 1.48 1.48 0 0 0 1 .43 1.46 1.46 0 0 0 1-.43 1.42 1.42 0 0 0 .43-1V11.77l-1.47 1.46H65l-1.48-1.46q-.12 29.48-.22 58.93l-.06 16.74a1.44 1.44 0 0 0 .43 1 1.5 1.5 0 0 0 1 .43 1.48 1.48 0 0 0 1-.43 1.45 1.45 0 0 0 .51-1z"/><path d="M37.37 12.55s5.4.22 8.94.33q5 .24 9.93 1a7.31 7.31 0 0 1 2.95 1 3.9 3.9 0 0 1 1.73 3.47c.13 2.91-.1 30.57-.66 68.47h3.93L64.71 15v-2.54c-22.15-.01-27.34.04-27.34.09zM66.59 33.18s4.14.17 6.89.25a74.5 74.5 0 0 1 7.61.73 5.77 5.77 0 0 1 2.3.67 2.78 2.78 0 0 1 1 1.09 2.83 2.83 0 0 1 .29 1.43c.11 2.12-.07 22.36-.5 50.07h3l.38-52.51v-1.86c-16.95.06-20.97.1-20.97.13zM12.45 25.68s4.15.19 6.89.28a69 69 0 0 1 7.6.84 5.3 5.3 0 0 1 2.3.75 3.42 3.42 0 0 1 1 1.3 3.35 3.35 0 0 1 .28 1.62c.11 2.41-.07 25.45-.5 57l4.2-1.06q-.33-29.36-.84-58.71v-2.1c-16.95-.02-20.93.02-20.93.08z"/><path d="M25.47 32.26H19a1.55 1.55 0 0 0-1 .43 1.49 1.49 0 0 0-.44 1A1.5 1.5 0 0 0 19 35.18h6.48a1.5 1.5 0 0 0 1-.43 1.42 1.42 0 0 0 .43-1 1.48 1.48 0 0 0-.43-1 1.55 1.55 0 0 0-1.01-.49zM25.47 45.24H19a1.51 1.51 0 0 0-1 .44 1.47 1.47 0 0 0-.44 1A1.49 1.49 0 0 0 19 48.16h6.48a1.5 1.5 0 0 0 1-.43 1.42 1.42 0 0 0 .43-1 1.46 1.46 0 0 0-.43-1 1.51 1.51 0 0 0-1.01-.49zM25.47 58.23H19a1.66 1.66 0 0 0-.58.11 1.58 1.58 0 0 0-.48.33 1.31 1.31 0 0 0-.32.48 1.55 1.55 0 0 0-.11.56A1.49 1.49 0 0 0 19 61.17h6.48a1.45 1.45 0 0 0 1-2.48 1.5 1.5 0 0 0-1-.43zM25.47 71.21H19a1.5 1.5 0 0 0-1 .43 1.41 1.41 0 0 0 0 2 1.56 1.56 0 0 0 1 .44h6.48a1.51 1.51 0 0 0 1-.44 1.41 1.41 0 0 0 .43-1 1.46 1.46 0 0 0-.43-1 1.5 1.5 0 0 0-1.01-.43zM78.48 45.83H72a1.49 1.49 0 0 0-1.48 1.46A1.49 1.49 0 0 0 72 48.74h6.48a1.44 1.44 0 0 0 1-.43 1.47 1.47 0 0 0 .44-1 1.49 1.49 0 0 0-1.48-1.46zM78.48 58.81H72a1.5 1.5 0 0 0-1 .43 1.47 1.47 0 0 0-.44 1A1.5 1.5 0 0 0 72 61.73h6.48a1.53 1.53 0 0 0 1-.43 1.51 1.51 0 0 0 .44-1 1.49 1.49 0 0 0-1.48-1.46zM78.48 71.79H72a1.5 1.5 0 0 0-1 .43 1.47 1.47 0 0 0-.44 1A1.49 1.49 0 0 0 72 74.71h6.48A1.49 1.49 0 0 0 80 73.25a1.49 1.49 0 0 0-1.48-1.46zM52.84 21.68h-6.48a1.49 1.49 0 0 0-1.48 1.46 1.49 1.49 0 0 0 1.48 1.46h6.48a1.5 1.5 0 0 0 1-.43 1.47 1.47 0 0 0 .44-1 1.49 1.49 0 0 0-.44-1 1.51 1.51 0 0 0-1-.49zM52.84 34.66h-6.48a1.53 1.53 0 0 0-1 .43 1.46 1.46 0 0 0 1 2.49h6.48a1.5 1.5 0 0 0 1-.43 1.47 1.47 0 0 0 .44-1 1.51 1.51 0 0 0-.44-1 1.56 1.56 0 0 0-1-.49zM52.84 47.65h-6.48a1.44 1.44 0 0 0-1 .43 1.47 1.47 0 0 0-.44 1 1.49 1.49 0 0 0 1.48 1.46h6.48a1.49 1.49 0 0 0 1.48-1.46 1.49 1.49 0 0 0-1.48-1.45zM52.84 60.69h-6.48a1.44 1.44 0 0 0-1 .43 1.47 1.47 0 0 0-.44 1 1.49 1.49 0 0 0 1.48 1.45h6.48a1.49 1.49 0 0 0 1.48-1.45 1.49 1.49 0 0 0-1.48-1.46zM47 86.35l-.07-10.42-1.48 1.46h9.13l-1.47-1.46v10.55a1.46 1.46 0 0 0 .43 1 1.47 1.47 0 0 0 2.08 0 1.47 1.47 0 0 0 .44-1V75.93a1.47 1.47 0 0 0-.44-1 1.56 1.56 0 0 0-1-.44h-9.16a1.55 1.55 0 0 0-1 .43 1.5 1.5 0 0 0-.43 1l.07 10.42a1.42 1.42 0 0 0 .44 1 1.47 1.47 0 0 0 1 .44 1.49 1.49 0 0 0 1-.44 1.47 1.47 0 0 0 .46-.99z"/></g></svg>