<svg xmlns="http://www.w3.org/2000/svg" viewBox="0 0 809.08 635.63"><path d="M806.66 630.55H35.06c-10.42 0-20.86-.18-31.28 0H2.41c-3.21 0-3.22 5 0 5H774c10.42 0 20.86.19 31.28 0h1.36c3.22 0 3.23-5 0-5z"/><path d="M355.77 632c-.55-2.89 2.37-11.2 4.71-13s5.42-2.1 8.3-2.73c4.88-1.08 7-.68 12-.91l33.87-.73c.45 4.12.72 13.2.81 17.35z" fill="#fff"/><path d="M358.19 631.35c.09.55 0 .09 0-.18v-.88l.09-.53c.07-.38.16-.76.25-1.13a26.22 26.22 0 0 1 1.37-4.18c.25-.59.58-1.24.91-1.84.13-.23.26-.46.41-.68l.27-.42c.26-.38-.07.06.09-.12a7.64 7.64 0 0 1 3.84-1.84 47.61 47.61 0 0 1 11-1.55c1.71 0 3.42-.08 5.13-.12l24.6-.53 8.45-.18-2.5-2.5c.61 5.75.68 11.57.81 17.35l2.5-2.5h-59.7c-3.21 0-3.22 5 0 5h59.7A2.53 2.53 0 0 0 418 632c-.13-5.78-.2-11.6-.81-17.35a2.55 2.55 0 0 0-2.5-2.5l-22.33.48-10.76.23-5.8.13a49.87 49.87 0 0 0-12 1.82 11.43 11.43 0 0 0-5.66 3 16.3 16.3 0 0 0-2.58 4.37c-1.38 3.19-2.73 6.93-2.16 10.45a2.52 2.52 0 0 0 3.08 1.75 2.56 2.56 0 0 0 1.71-3.03z"/><path d="M503.33 632c2.2-1.76.9-10.57.9-13.39a1.93 1.93 0 0 0-2.36-2.32l-26.94-.51c-7.65.29-10.46.57-18.1.85a18.25 18.25 0 0 0-7.24 1.26c-2.22 1.05-9.49 6.93-7.24 14.11z" fill="#fff"/><path d="M505.1 633.79c2.49-2.2 2.09-6.77 1.95-9.74-.08-1.57-.24-3.14-.3-4.71a9 9 0 0 0-.36-2.83 4 4 0 0 0-3.17-2.57 26.2 26.2 0 0 0-4.25-.19l-7.6-.14-15.2-.28c-2.51-.05-5 .12-7.51.25-4.67.24-9.36.33-14 .68a15.08 15.08 0 0 0-7.08 1.93 18.51 18.51 0 0 0-3.93 3.35c-3.24 3.61-5.1 8.32-3.69 13.14a2.56 2.56 0 0 0 2.41 1.84h61c3.22 0 3.23-5 0-5h-61l2.41 1.83c-.91-3.11.39-6 2.4-8.28a18.17 18.17 0 0 1 1.53-1.51l.74-.62c-.38.3.32-.22.42-.29a9.26 9.26 0 0 1 4.36-1.35c4.32-.39 8.7-.41 13-.65 2.72-.14 5.48-.39 8.21-.34l25.58.48a5.12 5.12 0 0 0 1.17 0c-.19.18-.51-1.3-.48 0v.86c0 .78.11 1.57.16 2.36.12 1.78.23 3.56.18 5.35 0 .46-.05.93-.09 1.39 0 .07-.08.5 0 .11 0 .15-.05.32-.09.47s-.3 1.21-.14.62a1.09 1.09 0 0 1-.17.32c.26-.17.23-.26 0 0a2.54 2.54 0 0 0 0 3.54 2.56 2.56 0 0 0 3.54-.02z"/><path stroke="#000" stroke-miterlimit="10" d="m490.91 616.31 13.22-.74-.8 16.45h-12.42v-15.71zM400.91 616.31l13.75-1.64.35 17.35h-14.1v-15.71z"/><g><path d="M417.89 61.06c0 18.23-.07 43 3.23 60.91 1.81 9.89 3.24 16.58 11.12 23.18 0 0-1.84 15.12-13.08 20v40.28s-1.45 13.14 15.84 13.14h23.83s11.92 0 11.6-17.06v-34.29l-6.53-4.16-2-13.9 5.77-16 7.68-17.41 4.9-7.81 7.16-5.77 3-9-7.17-10-7.49 2.27-10.39-17.54c-8.37-7.21-11.21-8-19.5-9.44l-.38.11zM484.91 44.2c-4.69.71-9.67-1.26-13.27-4.36s-5.42-8.57-3.24-12.78a10.85 10.85 0 0 1 2.29-2.93 14.87 14.87 0 0 1 17.24-2c5.33 3.17 8 10.33 5.78 16.13a9 9 0 0 1-2 3.22s-1.71 1.95-6.8 2.72z" fill="#fff"/><path d="M484.25 41.79a14.21 14.21 0 0 1-12.78-5.92A8.65 8.65 0 0 1 470 30a8.15 8.15 0 0 1 4-5.3 12.32 12.32 0 0 1 13-.27 11.41 11.41 0 0 1 5 10.8 8.5 8.5 0 0 1-2.39 4.77c.52-.59 0 0-.31.17a9.32 9.32 0 0 1-1.13.59c-.16.07-1.07.38-1.49.5-.8.22-1.61.38-2.43.52a2.51 2.51 0 0 0-1.75 3.07 2.56 2.56 0 0 0 3.07 1.75 16 16 0 0 0 7-2.61 11.27 11.27 0 0 0 4-6.4 16.4 16.4 0 0 0-5.7-16.48c-5.24-4.12-12.65-4.34-18.45-1.25a14.32 14.32 0 0 0-6.83 7.49 12.7 12.7 0 0 0 .74 9.45c3.22 7 11.89 10.8 19.27 9.8 1.34-.18 2.07-1.9 1.75-3.08a2.56 2.56 0 0 0-3.1-1.73z"/><path d="M493.8 41c-.18-2 .62-3.88.91-5.84a12 12 0 0 0-1.59-7.94 11.25 11.25 0 0 1-1.78-3.41 7.09 7.09 0 0 1 .91-4.24 41.19 41.19 0 0 1 15.1-17.09l.26 11.08a3.4 3.4 0 0 0 .21 1.31c.6 1.35 2.53 1.34 3.93.84s2.92-1.24 4.26-.63c1.68.76 1.86 3 2.12 4.83a15.73 15.73 0 0 0 5.71 10c3.2 2.54 7.48 3.9 9.7 7.33 2.66 4.09 1.41 9.43 1.41 14.31 0 8 3.65 15.58 7.44 22.67 1.49 2.79 3 6.36 1.08 8.89a6.72 6.72 0 0 1-4.47 2.23c-4.92.73-9.89-.82-14.4-2.91s-8.84-5-10-9.65c-.61-2.38-.26-4.89-.62-7.32s-1.8-5-4.22-5.4c-1.52-.24-3.26.42-4.51-.47a3.28 3.28 0 0 1-1.07-1.51 13.07 13.07 0 0 1-.35-5.78 11.07 11.07 0 0 0-.59-5.75c-.85-1.76-3-3-4.77-2.31-.03 0-4.25 1.33-4.67-3.24z" fill="#fff"/><path d="M496.3 41c-.12-2.12.76-4.15 1-6.25a14.12 14.12 0 0 0-.56-5.56 22.87 22.87 0 0 0-2.48-4.88c-.89-1.52-.11-2.92.62-4.37a39 39 0 0 1 13.76-15.3l-3.76-2.16c.09 3.69.08 7.4.26 11.08a4.88 4.88 0 0 0 1.95 4.12 5.92 5.92 0 0 0 4.47.67 10.84 10.84 0 0 0 1.65-.51c.44-.16 1.33-.65 1.8-.48s.52 1.69.6 2.22a18.93 18.93 0 0 0 3.15 8.43 21.7 21.7 0 0 0 6.64 5.9c2.12 1.28 4.59 2.44 6 4.55 1.65 2.46 1.42 5.68 1.26 8.5a44.94 44.94 0 0 0 .24 9.63c1.05 6.72 4.21 12.89 7.34 18.85.84 1.6 2.69 4.8 1 6.41s-5.66 1.27-7.82.87a32.88 32.88 0 0 1-9.06-3.22 16.77 16.77 0 0 1-6.11-4.76c-1.81-2.56-1.41-5.44-1.67-8.4s-1.31-6.08-3.94-7.81a7.77 7.77 0 0 0-4.86-1 3.48 3.48 0 0 1-1.16 0c-.17-.09.19.16 0-.06a4.11 4.11 0 0 1-.48-2.27c-.09-3.59 1-7.48-1.24-10.68-1.63-2.29-4.63-3.74-7.39-2.66h-.24c.62-.26.33-.07 0 0h-.32c-.33 0 .43.21-.19 0s.46.29-.1 0 .2.32-.13-.1c.33.43-.1-.17-.13-.25.14.43-.12-.54-.11-.47a2.57 2.57 0 0 0-2.5-2.5 2.51 2.51 0 0 0-2.5 2.5c.32 2.64 1.54 5 4.31 5.71a6.65 6.65 0 0 0 2.22.12c.5-.06 1.13-.3 1.58-.34 1-.08 1.6 1 1.81 1.85a15 15 0 0 1 0 4.82c-.24 3.36.16 7.95 4 9.13a7.49 7.49 0 0 0 2.54.22 4.52 4.52 0 0 1 1.94.08 3.51 3.51 0 0 1 1.54 2.17 15.81 15.81 0 0 1 .43 4.34 16.7 16.7 0 0 0 .82 5.35c2.27 6.13 8.61 9.4 14.36 11.59a25.78 25.78 0 0 0 10.8 1.92c3.23-.22 6.73-1.18 8.38-4.23s.51-6.78-.94-9.76-3.18-6-4.51-9.1a38.12 38.12 0 0 1-2.92-10c-.41-3.18 0-6.34.08-9.52.09-3.34-.28-6.86-2.24-9.67-1.75-2.52-4.35-4.11-7-5.65-2.94-1.75-5.38-3.68-6.88-6.85-1.36-2.87-.76-6.58-2.92-9.06a5.39 5.39 0 0 0-5.31-1.54c-.91.19-1.74.61-2.63.86-.23.07-1.11.21-1.08.09s1 .58.41.53c0 0-.05-1.74-.05-1.89L510 9.27l-.16-6.75a2.52 2.52 0 0 0-3.75-2.16 44 44 0 0 0-15.56 17.09c-1 2.08-2 4.25-1.66 6.63.31 2 1.61 3.42 2.49 5.16a9.6 9.6 0 0 1 .95 5.14c-.2 2.26-1.14 4.35-1 6.66.17 3.2 5.17 3.22 4.99-.04z"/><path d="M441.19 59.5c8.78 0 18.3 2.12 24.17 8.4s8.25 13.51 9.38 21.89c-.35-3.3 3.21-6.12 6.66-6a9.93 9.93 0 0 1 6.87 3.59 1 1 0 0 0 1.78-.49 63.61 63.61 0 0 0 .39-24c-1.7-8.67-5.9-17-12.71-22.93a42.38 42.38 0 0 0-21.26-9.37c-10.59-1.66-20.33 0-28.9 6.24-6.43 4.65-9.49 15.87-9.68 24.23 0 0 16.72-1.52 23.3-1.56z" fill="#fff"/><path d="M441.19 62c7.54 0 16 1.46 21.62 6.87 5.95 5.71 8.42 13.63 9.52 21.59.38 2.77 5.09 2.13 4.91-.67-.12-1.72 1.38-3.06 3.11-3.41a6.37 6.37 0 0 1 5.36 2c1 .93 1.77 1.86 3.24 1.91a3.56 3.56 0 0 0 3.43-2.42 25 25 0 0 0 .75-4.32c.24-1.74.45-3.48.59-5.24.85-11.21-1.17-22.91-7.51-32.37-6.2-9.24-16-15.09-26.78-17.3s-22-1.12-31.37 4.88a22 22 0 0 0-5.89 5.31 29.34 29.34 0 0 0-3.68 6.76 45 45 0 0 0-3.1 15.52 2.51 2.51 0 0 0 2.5 2.5c7.73-.7 15.53-1.49 23.3-1.56 3.21 0 3.22-5 0-5-7.77.07-15.57.86-23.3 1.56l2.5 2.5a41.41 41.41 0 0 1 2.23-12.33c1.24-3.62 3.14-7.38 6.23-9.76 7.65-5.91 17.95-7.46 27.38-5.91s18.9 6.06 24.75 14c6.18 8.46 8.35 18.88 7.86 29.22-.08 1.61-.22 3.22-.4 4.82-.09.74-.19 1.48-.31 2.22a15.87 15.87 0 0 0-.44 2.63c0 1.08 2.81.36 2.22-.52a5.64 5.64 0 0 0-.81-.81 15.53 15.53 0 0 0-1.69-1.34 11.41 11.41 0 0 0-3.84-1.74c-5.16-1.19-11.72 2.3-11.33 8.2l4.91-.66c-.95-6.88-2.91-13.7-7-19.38a28.69 28.69 0 0 0-7.62-7.44 31.79 31.79 0 0 0-9.49-4A48.35 48.35 0 0 0 441.19 57c-3.19 0-3.19 5 0 5z"/><path d="M483.25 56.6c3.53 9.93 0 26.65 0 26.65 5.25.38 6.41 5.91 6.41 5.91 1.79-8.63 2.45-17.6.82-26.27s-5.68-17-12.24-22.93c-5.65-5.09-15.08-9.08-20.46-9.37 0 0 16.82 1.69 25.47 26.01z"/><path d="M480.84 57.26c1.8 5.21 1.67 11 1.23 16.39a65.32 65.32 0 0 1-1.23 8.94 2.54 2.54 0 0 0 2.41 3.16 3.73 3.73 0 0 1 2.06.82 4.59 4.59 0 0 1 1.13 1.32c.18.29.32.59.48.89s-.2-.55 0 0l.12.35a4.83 4.83 0 0 1 .22.74c.51 2.37 4.33 2.4 4.82 0 2.33-11.38 2.87-23.49-1.06-34.59a44 44 0 0 0-7.67-13.6 37.83 37.83 0 0 0-11.42-9c-4.34-2.28-9.19-4.24-14.14-4.56a2.52 2.52 0 0 0-2.5 2.5 2.56 2.56 0 0 0 2.5 2.5s-.88-.16-.17 0c.42.09.85.17 1.27.28a22.831 22.831 0 0 1 3.01 1.03l.14.06.69.32a28.5 28.5 0 0 1 2.76 1.53c.52.32 1 .66 1.52 1a13.89 13.89 0 0 1 1.25.95 35.33 35.33 0 0 1 6.24 6.65 50.85 50.85 0 0 1 6.35 12.35 2.57 2.57 0 0 0 3.06 1.71 2.53 2.53 0 0 0 1.75-3.08c-4.24-11.78-12.35-23.66-25-27.28a17.45 17.45 0 0 0-2.88-.56v5a9.79 9.79 0 0 1 1.93.27 27.61 27.61 0 0 1 2.81.73 39.11 39.11 0 0 1 5.68 2.27A35.07 35.07 0 0 1 478.75 44c6.41 7 9.52 16.49 10.06 25.82a72.53 72.53 0 0 1-1.56 18.7h4.82a9.91 9.91 0 0 0-8.82-7.75l2.41 3.17a82.84 82.84 0 0 0 1.41-10.27c.48-5.84.53-12.12-1.41-17.72a2.56 2.56 0 0 0-3.08-1.74 2.51 2.51 0 0 0-1.74 3.05z"/><path d="M482.32 44.34s16.29-1.28 12.17-13.75-14.68-8.22-14.68-8.22 7.18.44 7.94 9.91c.53 6.53-5.43 12.06-5.43 12.06z" stroke="#000" stroke-miterlimit="10"/><path d="M511.75 15.75c1.39-.49 2.92-1.24 4.26-.63 1.68.76 1.86 3 2.12 4.83a15.73 15.73 0 0 0 5.71 10c3.2 2.54 7.48 3.9 9.7 7.33 2.66 4.09 1.41 9.43 1.41 14.31 0 8 3.65 15.58 7.44 22.67 1.49 2.79 3 6.36 1.08 8.89a6.72 6.72 0 0 1-4.47 2.19c-4.92.73-10.89-3.82-15.4-5.91 0 0 12.67 6.09 10.34-4.06-1.9-8.27-6.12-21.59-5.87-26.66s-4.83-9.22-12.34-16.43-3.98-16.53-3.98-16.53zM493.5 87.49c-.32-1-.81-2.08-1.22-3.09-.61-1.56-1.24-3.12-1.86-4.67-.16-.41-.33-.81-.48-1.22a4 4 0 0 0-1.72-2.24 3.84 3.84 0 0 0-2.89-.38 3.8 3.8 0 0 0-2.24 1.72 3.67 3.67 0 0 0-.38 2.89c1 2.61 2.06 5.17 3.08 7.76.16.4.35.81.47 1.22a3.88 3.88 0 0 0 1.74 2.24 3.75 3.75 0 0 0 5.51-4.23z"/><path d="M471.41 163.65c-.75-.17-1.46-.4-2.18-.64-.21-.07-.61-.32.17.08l-.46-.22c-.33-.16-.65-.34-1-.53-.11-.07-1-.66-.48-.3s-.19-.17-.31-.27-.42-.4-.61-.61-.19-.22-.29-.32c-.5-.53.46.72.08.09-.27-.44-.54-.88-.79-1.33-.41-.77.25.77 0 0-.1-.3-.21-.59-.29-.89a15 15 0 0 1-.36-1.64c-.12-.62.07.95 0-.05 0-.33-.05-.65-.06-1v-1.63c0-.29 0-.59.06-.88s0-.29 0-.44c.07-.73.19-.1 0 .13.21-.22.21-1.31.28-1.63.12-.61.25-1.21.4-1.81a47.13 47.13 0 0 1 2-6.08c.32-.79-.26.58-.07.17.06-.16.13-.32.2-.47.15-.34.29-.67.45-1l.6-1.23a17.11 17.11 0 0 0 1-3.12 40.39 40.39 0 0 1 2.05-5.65c1.87-4.17 4.11-8.16 5.9-12.36a47 47 0 0 0 2.39-6.71c.13-.52.23-1 .36-1.56a4.25 4.25 0 0 0 .2-.71c0 .34-.65.86-.67.88s.64-.29 0-.05l.66-.22c.67-.24 1.34-.51 2-.8 8.58-3.84 13.18-14.4 10.77-23.34a3.75 3.75 0 0 0-7.24 2c.12.43.21.87.31 1.31.15.71 0 .14 0 0l.06.66v1.33c0 .27-.14 1.8 0 1a15.55 15.55 0 0 1-.6 2.62q-.19.63-.45 1.26c.27-.69-.31.62-.4.78-.21.4-.43.79-.67 1.17-.12.19-.24.38-.37.56s-.46.65-.2.3-.16.2-.23.28l-.44.5c-.34.37-.69.73-1.06 1.06-.13.12-1.13.9-.53.47-.41.29-.83.57-1.26.82a13.25 13.25 0 0 1-1.18.62c-.53.26.52-.18 0 0l-.81.28a8.22 8.22 0 0 0-3.44 1.93 8.36 8.36 0 0 0-1.86 4.06 42.37 42.37 0 0 1-2 6.16c-1.66 3.91-4.07 8.18-5.88 12.29a52.64 52.64 0 0 0-2.59 6.87 6.79 6.79 0 0 0-.4 1.58c0 .62.27-.42.23-.27a1.22 1.22 0 0 1-.14.28c-.69 1.46-1.36 2.91-2 4.41a35.59 35.59 0 0 0-3 14.18 16.1 16.1 0 0 0 2.66 8.89 15.75 15.75 0 0 0 9.4 6 3.75 3.75 0 1 0 2-7.23zM431.48 132.91c2.84 1.3 5.74 2.65 8.91 2.81s6.32-1.21 9.07-2.81a2.5 2.5 0 0 0-2.53-4.32c-.69.41-1.39.79-2.12 1.14l-.46.21c-.39.17.29-.11-.08 0s-.65.25-1 .35l-.83.23-.4.08s-.65.11-.26.06-.1 0-.16 0h-1.25c-.22 0-.86-.1-.3 0-.26 0-.51-.08-.77-.14a16.43 16.43 0 0 1-1.7-.47c-.61-.21-1.22-.45-1.82-.7h-.09l-.59-.26-1.11-.51a2.58 2.58 0 0 0-3.43.9 2.53 2.53 0 0 0 .9 3.42zM451.78 91.9c3.21 0 3.22-5 0-5s-3.23 5 0 5zM429.45 91.9c3.22 0 3.22-5 0-5s-3.22 5 0 5zM443.21 116.6c-1.19-.16-2.38-.28-3.57-.41a12.24 12.24 0 0 1-3.16-.45l1.1.64-.24-.22.65 1.1c0 .07-.14.76.05-.24.06-.32.11-.64.16-1 .11-.63.22-1.25.35-1.87.24-1.27.52-2.54.8-3.81.57-2.51 1.2-5 1.78-7.51A117.85 117.85 0 0 0 444 85.39a2.52 2.52 0 0 0-2.5-2.5 2.55 2.55 0 0 0-2.5 2.5c-.59 7.45-2.33 14.63-4 21.89-.4 1.67-.78 3.35-1.12 5a24.54 24.54 0 0 0-.85 5.36c.1 2.73 2.76 3.08 4.88 3.32 1.79.2 3.57.36 5.35.6a2.52 2.52 0 0 0 2.5-2.5 2.56 2.56 0 0 0-2.5-2.5zM450.17 79.92c.28 0-.91.1-.41 0H452.21c.4 0-.69-.1-.26 0a10.47 10.47 0 0 1 1.35.29c.26.07.51.14.76.23l.35.13.24.1-.35-.15a6.52 6.52 0 0 1 1.58.85l.36.25.18.13-.2-.16c0 .11.26.22.36.3l.47.43a2.5 2.5 0 0 0 3.53-3.53 14 14 0 0 0-11.74-3.75 2.54 2.54 0 0 0-1.5 1.15 2.51 2.51 0 0 0 2.83 3.68zM426 84.92l.36-.17c.25-.12-.6.23-.33.14l.23-.09c.28-.1.56-.19.85-.27s.68-.16 1-.23c.1 0 .42-.06 0 0s-.07 0 0 0h.59a11.62 11.62 0 0 1 1.18 0h.36c.33 0-.54-.09-.21 0s.45.07.68.13a10.57 10.57 0 0 1 1.36.39l.41.15c.3.11.06 0-.09 0a3.54 3.54 0 0 1 .85.42 2.5 2.5 0 0 0 2.61-4.39 14.13 14.13 0 0 0-7.07-1.76 13.34 13.34 0 0 0-5.26 1.35 2.51 2.51 0 0 0-.9 3.42 2.57 2.57 0 0 0 3.42.9z"/><path d="M464.13 131.2a3.12 3.12 0 0 1-.15.39c-.05.15-.12.3-.17.45s.3-.69.09-.22l-.15.34a31.54 31.54 0 0 1-1.95 3.68q-.69 1.13-1.47 2.19l-.21.29s.28-.37.11-.15l-.47.58c-.32.38-.65.76-1 1.13a20.88 20.88 0 0 1-2.22 2.09l-.32.25c.07-.05.4-.29 0 0l-.58.41q-.69.46-1.41.87a14.38 14.38 0 0 1-6.81 1.74c-3.22 0-3.23 5 0 5 9.41-.06 16.64-7 20.43-15.11a26.5 26.5 0 0 0 1.08-2.58 2.53 2.53 0 0 0-1.74-3.08 2.56 2.56 0 0 0-3.08 1.75z"/></g><g><path d="M471 166.84s26.63.43 33.91 2.43c0 0-2.48 293.23-.4 442.51 0 1.09.38 3-.41 3.79a4.13 4.13 0 0 1-3 .73c-7.24-.2-23.48-.4-30.72-.6.2-83.71-.15-142.33 0-226.2a13.11 13.11 0 0 0-13.12-13.14h-25a13.13 13.13 0 0 0-13.12 13.07l-.63 74.45-3.6 151.47-35.64-.22c.39-89.2 3.74-168.27 3.73-249.07l5.79-198c12.22-1.76 30.38-2.81 30.38-2.81v40.28a13.12 13.12 0 0 0 13.13 13.14h25a13.14 13.14 0 0 0 13.13-13.07c.06-11.27.24-27.44.62-38.71" fill="#00fffc"/><path d="M471 169.34c4.66.07 9.32.23 14 .45 6.33.3 13.12.26 19.28 1.89l-1.84-2.41c0 3-.05 6-.07 9q-.11 12.48-.19 24.94-.14 19.1-.25 38.17-.15 24.18-.27 48.37-.14 27.64-.24 55.31-.1 29.94-.16 59.88-.06 30.46-.05 60.94 0 29.82.13 59.65.11 27.57.35 55.13.1 12.41.27 24.82c0 1.94 0 3.88.07 5.82 0 .52.05 1 .07 1.55a4.27 4.27 0 0 1 0 1.23c.1-.29.52-.39-.07-.33a23.65 23.65 0 0 1-3.15 0c-4.93-.11-9.85-.18-14.78-.27-4.58-.08-9.17-.15-13.76-.27l2.5 2.5q.12-47.9 0-95.79 0-45.58-.08-91.17v-37.89a18 18 0 0 0-1.94-8.91 15.87 15.87 0 0 0-13.69-8.08c-2.5-.05-5 0-7.49 0h-12.25a47.38 47.38 0 0 0-8 .27 15.73 15.73 0 0 0-12.3 11.55 24.09 24.09 0 0 0-.49 5.55l-.35 42.59c-.09 10.06-.09 20.12-.26 30.18-.13 7.74-.37 15.47-.55 23.21l-1.14 47.9-1.17 49.88-.69 29v1.4l2.5-2.5-35.64-.22 2.5 2.5c.24-53.14 1.62-106.27 2.68-159.4.5-25.27.91-50.54 1-75.81 0-7.1 0-14.16.25-21.25l1.81-62.07 2.38-81.46.9-30.88c.15-5.14.63-10.39.46-15.54v-.71l-1.84 2.41c9.84-1.39 19.81-2.14 29.72-2.72l-2.5-2.5v35a52.23 52.23 0 0 0 .22 7.81 15.69 15.69 0 0 0 13.57 13 81.32 81.32 0 0 0 9.75.13h14.13c4.47 0 8.66-.35 12.39-3.2a15.64 15.64 0 0 0 5.95-9.82c.69-4.17.28-8.65.32-12.87.1-9.46.23-18.93.54-28.39.11-3.22-4.89-3.22-5 0-.26 7.71-.38 15.44-.48 23.16q-.07 5.81-.12 11.63c0 3.37.19 6.63-1.71 9.6-2.51 4-6.58 4.89-10.92 4.89h-22.7a10.78 10.78 0 0 1-10.84-9.19 46.85 46.85 0 0 1-.1-6.49V165.2a2.52 2.52 0 0 0-2.5-2.5c-10.37.6-20.76 1.44-31.05 2.9a2.52 2.52 0 0 0-1.83 2.41l-1.13 38.79-2.34 79.95-2 67.24c-.81 27.9-.57 55.83-1.06 83.75-.92 52.28-2.4 104.55-2.88 156.84q-.11 10.27-.14 20.55a2.53 2.53 0 0 0 2.5 2.5l35.64.22a2.53 2.53 0 0 0 2.5-2.5l.48-19.9L419 550l1.18-49.58.78-32.86c.13-5.79.15-11.57.2-17.36l.4-47.89c0-4.19 0-8.39.1-12.58a10.88 10.88 0 0 1 6-9.76c2.68-1.31 5.65-1.06 8.55-1.06 6.9 0 13.81-.05 20.72 0a10.82 10.82 0 0 1 10.32 6.88c1.26 3.36.66 7.39.66 10.91v12.24q0 45.74.05 91.47.06 45.42 0 90.84 0 12.25-.05 24.5a2.55 2.55 0 0 0 2.5 2.5c9.67.26 19.34.33 29 .55 2.43.06 5.3.3 6.91-1.92 1.37-1.89.75-4.71.72-6.9l-.15-12.07q-.3-26.73-.43-53.47-.17-29.39-.2-58.78v-61.65q0-30.6.13-61.2.09-28.86.23-57.72.12-25.59.27-51.19.12-20.72.26-41.45l.21-29.09c0-4.49.19-9 .11-13.47v-.57a2.54 2.54 0 0 0-1.84-2.41c-6.42-1.7-13.49-1.73-20.09-2.05q-7.23-.34-14.48-.47c-3.22-.06-3.22 4.94 0 5z"/><path d="M413.62 392.34 409 614h5.91c1.69-74.31 2.14-126.57 4-202.36.28-11.28.56-10.85.62-22.13a13.14 13.14 0 0 1 13.13-13.06s-19.04-1.05-19.04 15.89z"/><path d="m411.12 392.34-.13 5.94-.33 16.16-.5 23.79-.61 29.13-.66 31.79-.67 32.21-.63 30-.53 25.37-.38 18.18c-.06 2.88-.19 5.76-.18 8.64v.37a2.54 2.54 0 0 0 2.5 2.5h5.91a2.54 2.54 0 0 0 2.5-2.5q.6-26 1.07-52 .45-24 .85-48t.88-48.23q.53-26.31 1.15-52.63c.15-5.93.47-11.86.59-17.78.07-3.23-.38-6.76.85-9.82a10.52 10.52 0 0 1 9.85-6.59c3.23 0 3.2-4.84 0-5-7-.36-15 2.44-18.91 8.53a18.51 18.51 0 0 0-2.61 9.91c0 3.22 5 3.22 5 0a13.91 13.91 0 0 1 1.62-6.88 11.18 11.18 0 0 1 3.8-3.87c.41-.26.84-.49 1.27-.71l.65-.31c.52-.25-.2.05.33-.14a23 23 0 0 1 2.67-.85c.8-.2 1.6-.35 2.4-.48.58-.1 0 0 0 0l.52-.06 1-.09a18.08 18.08 0 0 1 2.21 0v-5a15.8 15.8 0 0 0-15.16 11.85c-.85 3.48-.47 7.24-.56 10.79-.07 2.47-.18 4.93-.29 7.4-.7 17.4-.88 34.83-1.24 52.23q-.5 24.9-.93 49.8-.42 24.42-.86 48.84-.48 26-1 52.1c-.05 2.35-.1 4.69-.16 7l2.5-2.5H409l2.5 2.5.13-5.94.34-16.16.49-23.79.61-29.13.66-31.79.67-32.21.63-30 .53-25.37.38-18.18c.06-2.88.19-5.76.18-8.64v-.37c.06-3.23-4.94-3.23-5-.01zM498.7 614h5.91c1.68-74.31-1.06-368.89.79-444.68l-6.7-.43c-.47 14.49 0 445.11 0 445.11z"/><path d="M498.7 616.45h5.91a2.55 2.55 0 0 0 2.5-2.5c.49-21.83.5-43.67.55-65.5q.09-48.15-.06-96.31-.12-53.72-.27-107.45-.12-49.38-.08-98.74c.05-23.61.08-47.21.53-70.81l.12-5.87a2.53 2.53 0 0 0-2.5-2.5l-6.7-.43a2.53 2.53 0 0 0-2.5 2.5c-.16 5.14-.09 10.29-.11 15.43q-.06 17.21-.07 34.42V596.51c0 5.58-.09 11.18 0 16.77v.72c0 3.22 5 3.22 5 0v-43q0-23.26-.05-46.54V229.48q0-19.22.06-38.45c0-6.8 0-13.61.1-20.41v-1.73l-2.5 2.5 6.7.43-2.5-2.5c-.53 22.06-.56 44.13-.62 66.2q-.13 48.33 0 96.66.1 53.73.27 107.47.1 49.22.1 98.43c0 23.38 0 46.77-.45 70.15 0 1.92-.07 3.85-.11 5.77l2.5-2.5h-5.82c-3.22-.05-3.22 4.95 0 4.95z"/></g><g><path d="M384.13 381.89c6.32-.33 12.44-2.38 17.13-6.75a24.72 24.72 0 0 0 7.21-13 2.55 2.55 0 0 0-1.74-3.07 2.52 2.52 0 0 0-3.08 1.74 19.49 19.49 0 0 1-5.74 10.64 21.41 21.41 0 0 1-13.78 5.46 2.55 2.55 0 0 0-2.5 2.5 2.52 2.52 0 0 0 2.5 2.5zM478.36 362.12c1.7 5.21 3.58 10.58 7.6 14.48a15.46 15.46 0 0 0 12.56 4.65 2.57 2.57 0 0 0 2.5-2.5 2.52 2.52 0 0 0-2.5-2.5 14 14 0 0 1-1.94.09h-1c-.51 0 .15.06-.37-.06s-1-.21-1.43-.35c-.22-.07-.43-.16-.65-.24-.56-.2.24.15-.23-.1s-.81-.42-1.21-.66l-.59-.4c-.11-.07-.59-.44-.11-.07a17.57 17.57 0 0 1-1.65-1.46 18.47 18.47 0 0 1-3.75-5.55 57.48 57.48 0 0 1-2.44-6.61 2.56 2.56 0 0 0-3.08-1.74 2.52 2.52 0 0 0-1.75 3.07zM425 182.61c10.78 9.18 27.54 10 38.86 1.24a2.58 2.58 0 0 0 .9-3.42 2.51 2.51 0 0 0-3.42-.9c-9.46 7.31-23.6 7.39-32.81-.45a2.55 2.55 0 0 0-3.53 0 2.5 2.5 0 0 0 0 3.53zM470.53 164.4a50.4 50.4 0 0 1-19.71 6.19 54.47 54.47 0 0 1-10.36-.61 61.27 61.27 0 0 1-9.41-1.7 32.73 32.73 0 0 1-10.62-5.28 2.52 2.52 0 0 0-3.42.9 2.55 2.55 0 0 0 .89 3.42c6.24 4.59 13.41 6.46 21 7.43a65 65 0 0 0 10.69.87 47.25 47.25 0 0 0 11.37-1.94 63 63 0 0 0 12.11-5c2.84-1.52.32-5.84-2.52-4.32zM383.33 343l16.05.27 19.32.32c5.34.08 10.69 0 16 .09 4.53.06 9.06.14 13.59.36 5 .25 9.72 1.06 14.78 1.68a124.93 124.93 0 0 0 18.53 1.21 70 70 0 0 0 17.4-2.7c1.54-.44 3.07-.93 4.58-1.45a2.57 2.57 0 0 0 1.75-3.08 2.53 2.53 0 0 0-3.08-1.75 69 69 0 0 1-17 3.79 95.83 95.83 0 0 1-17.76-.5c-5.63-.6-11.23-1.66-16.88-2.05-4.21-.29-8.44-.37-12.65-.45-6.29-.11-12.57-.09-18.86-.13-5.55-.05-11.1-.19-16.65-.28-6.26-.11-12.55-.37-18.81-.32h-.35c-3.22-.06-3.22 4.94 0 5zM468.38 238.39h30.11l-2.5-2.5v21.39a5.78 5.78 0 0 1-4.79 6 45.75 45.75 0 0 1-6.52.05h-7.95a5.72 5.72 0 0 1-5.85-5.65v-21.79c0-3.21-5-3.22-5 0v21.74a10.79 10.79 0 0 0 8.3 10.43c2.54.53 5.32.26 7.89.26h8.18a10.78 10.78 0 0 0 10.4-8 27.08 27.08 0 0 0 .34-6.61v-17.82a2.53 2.53 0 0 0-2.5-2.5h-30.11c-3.21 0-3.22 5 0 5z"/></g><g><path d="M287.06 166c.6 18.72 1 37.44 1.46 56.17q.89 38.73 1.67 77.47l1.74 85.21q.82 39.68 1.69 79.35c.45 19.78.89 39.56 1.49 59.34l.15 5.17c.16 4.81 7.66 4.83 7.5 0-.59-18.72-1-37.44-1.45-56.16q-.88-38.75-1.67-77.48l-1.74-85.21q-.82-39.68-1.69-79.35c-.45-19.78-.9-39.56-1.49-59.34-.05-1.72-.1-3.45-.16-5.17-.15-4.81-7.65-4.83-7.5 0z"/><path d="M302.43 541.2c9.3 0 17.19-5.57 20-13.29a10.06 10.06 0 0 0 9.13 5.46c5.52 0 10-4.12 10-9.21s-4.48-9.22-10-9.22a10.78 10.78 0 0 0-1.81.16 5.32 5.32 0 0 0 .14-1.2 6.15 6.15 0 0 0-6.39-5.88 6.66 6.66 0 0 0-4.56 1.77c-3-3.46-7.2-5.36-12.06-6.32a6.57 6.57 0 0 0 .8-3.12 5.23 5.23 0 0 0-10.42 0 6.68 6.68 0 0 0 .79 3.12c-4.3.85-8.09 2.31-11 5.17a7.5 7.5 0 0 0-5.46-2.28 7 7 0 0 0-7.28 6.71v.25a10.23 10.23 0 0 0-2.23-.25c-5.24 0-9.49 3.92-9.49 8.75s8.48 4 9.49 8.75c3.59 16.84 30.35 10.63 30.35 10.63z" fill="#fff"/><path d="M302.43 543.7c9.82-.08 18.92-5.8 22.37-15.13l-4.57.6c3.36 6.61 12.4 8.66 18.49 4.57a11.42 11.42 0 0 0 1.87-17.64 13.28 13.28 0 0 0-11.54-3.41l3.07 3.08a8.37 8.37 0 0 0-4.22-9.13 9.45 9.45 0 0 0-10.76 1.36h3.53c-3.4-3.85-8.21-5.95-13.16-7l1.49 3.67a8.08 8.08 0 0 0 .24-7.79 7.92 7.92 0 0 0-13.55-.13 8.1 8.1 0 0 0 .16 7.92l1.5-3.67c-4.48.91-8.76 2.6-12.09 5.81h3.54a10.28 10.28 0 0 0-11.26-2.17 9.17 9.17 0 0 0-5.74 8.62l3.17-2.41a12.79 12.79 0 0 0-11.38 3c-2.46 2.26-4.32 6.37-3.25 9.73.88 2.75 3.48 3.95 5.92 5 .56.25 1.13.51 1.67.8l.73.43c.06 0 .39.28.06 0 .12.09.23.2.34.3s.22.21.32.32c-.07-.07-.27-.37 0 0 .06.1.12.2.17.3.18.34-.1-.34 0 0 .2.66.32 1.34.54 2 3.42 10.21 14.94 12.4 24.43 11.86a50.32 50.32 0 0 0 8.55-1.13c3.14-.72 1.81-5.54-1.33-4.82-.5.12-1 .21-1.53.3s-1.18.19-1.78.28.44 0 0 0l-.48.06-1.22.13a51.18 51.18 0 0 1-5.68.24c-1 0-2-.06-3-.16l-.8-.08h-.24c-.56-.08-1.13-.18-1.69-.29a25.36 25.36 0 0 1-3-.8l-.74-.27-.31-.13a16.53 16.53 0 0 1-2.61-1.46c-.12-.08-.65-.5-.29-.21-.23-.18-.45-.37-.67-.58s-.67-.68-1-1a2.75 2.75 0 0 1-.22-.26s.22.29.05.06a7.85 7.85 0 0 1-.52-.76c-.27-.43-.51-.88-.74-1.34a1.45 1.45 0 0 1-.18-.42c-.11-.32-.22-.64-.32-1a10.62 10.62 0 0 0-1.33-3.4c-1.53-2.1-3.89-2.94-6.14-4a14.62 14.62 0 0 1-1.65-.9c-.24-.16 0 0 .07.06-.14-.11-.26-.24-.39-.35a1.51 1.51 0 0 1-.21-.23c.15.18.13.22 0 0s-.18-.43 0 0a1.53 1.53 0 0 1-.11-.42c0 .5 0-.5.06-.7a6.12 6.12 0 0 1 .48-1.69c1.37-3 4.93-4.36 8.05-3.73a2.53 2.53 0 0 0 3.16-2.41 4.24 4.24 0 0 1 2.67-4.05 5.25 5.25 0 0 1 5.79 1.14 2.55 2.55 0 0 0 3.54 0c2.71-2.62 6.25-3.79 9.88-4.53a2.52 2.52 0 0 0 1.49-3.67 2.69 2.69 0 1 1 4.51 0 2.52 2.52 0 0 0 1.5 3.67c4.18.85 8.08 2.42 11 5.68a2.54 2.54 0 0 0 3.53 0c2.35-2.08 7.3-.68 6.63 2.88a2.54 2.54 0 0 0 3.08 3.07c5.52-.83 10.79 4.71 7.76 9.81s-11 4.47-13.59-.67c-1.06-2.08-3.88-1.27-4.57.59-2.67 7.21-10.1 11.4-17.55 11.46-3.22.17-3.23 5.17 0 5.14z"/><path d="M256.81 524.34q44.87-.2 89.73 1C343.46 560 339 598.43 336 632.71h-74z" fill="#fff"/><path d="M256.81 526.84q34.89-.15 69.79.54 10 .2 19.94.46l-2.5-2.5c-2.5 28.15-5.61 56.23-8.39 84.35q-1.14 11.5-2.19 23l2.5-2.5H262l2.5 2.5-.5-10.75-1.24-25.85-1.5-31.29-1.26-27.07c-.21-4.4-.32-8.81-.63-13.2a1.28 1.28 0 0 1 0-.19c-.16-3.21-5.16-3.23-5 0l.51 10.76 1.18 25.9 1.5 31.29 1.3 27.07c.21 4.39.32 8.81.63 13.2a1.15 1.15 0 0 1 0 .19 2.55 2.55 0 0 0 2.5 2.5h74a2.56 2.56 0 0 0 2.5-2.5c2.52-28.08 5.63-56.1 8.39-84.15Q348 537 349 525.34a2.54 2.54 0 0 0-2.5-2.5q-34.89-.92-69.79-1h-19.94c-3.18.01-3.19 5.01.04 5z"/><path stroke="#000" stroke-miterlimit="10" d="M346.54 525.35h-11.3l-7.32 107.36h8.04l10.58-107.36"/><path d="M273.13 541.4a47.43 47.43 0 0 0 53.71 9.6 46.49 46.49 0 0 0 13.46-9.62c2.24-2.3-1.29-5.84-3.54-3.53a42.29 42.29 0 0 1-48 8.68 42.74 42.74 0 0 1-12.13-8.68c-2.25-2.31-5.79 1.23-3.54 3.53z"/></g><g><path d="M330.57 298c11.58 1.77 24.16 0 33.27-7.35a63 63 0 0 0 5.63-5.15 47.86 47.86 0 0 0 12.89-27.5l-23.8.12s-.29 8-5.29 13.75c-7.2 8.29-18.42 6.59-28.82 3.08a18.71 18.71 0 0 1-2.93-1.34v-3.72c-7.65-5.49-18.81-13.23-18.81-13.23s-12.61 6-7 18.45c0 0 5.72 9.38 12.61 15.05l2.06-1.1c5.62 4.05 12.54 7.76 20.19 8.94z" fill="#fff"/><path d="M329.91 300.4c10 1.49 20.46.72 29.56-3.94a46.27 46.27 0 0 0 12.19-9.65 48.41 48.41 0 0 0 8.48-12.39 52.92 52.92 0 0 0 4.72-16.42 2.53 2.53 0 0 0-2.5-2.5l-20.84.11h-3a2.56 2.56 0 0 0-2.5 2.5c0 .41-.06.81-.1 1.21s.07-.48 0-.11v.31l-.12.67c-.12.66-.26 1.32-.43 2a19.34 19.34 0 0 1-4 8.08c-4.31 4.87-10.73 5.73-16.88 4.72a37.34 37.34 0 0 1-11.71-3.52l1.24 2.16c0-1.95.44-4.59-1.29-5.88-2.73-2-5.55-3.95-8.33-5.91q-5.23-3.67-10.48-7.32a2.52 2.52 0 0 0-2.52 0 18.18 18.18 0 0 0-8.47 8.73 15.16 15.16 0 0 0-.33 11 24.77 24.77 0 0 0 3.75 6.39 61.39 61.39 0 0 0 10.11 11.3 2.62 2.62 0 0 0 3 .39l2.06-1.1H309c6.21 4.47 13.27 8 20.88 9.23a2.58 2.58 0 0 0 3.07-1.75 2.52 2.52 0 0 0-1.74-3.08c-7.25-1.15-13.78-4.47-19.69-8.72a2.5 2.5 0 0 0-2.52 0l-2 1.09 3 .39a52.91 52.91 0 0 1-8.3-8.88 41.56 41.56 0 0 1-3.89-5.61 11.74 11.74 0 0 1-1.07-3.94 8.64 8.64 0 0 1 .46-4 5.53 5.53 0 0 1 .56-1.3 14.38 14.38 0 0 1 1.11-1.75c-.29.39.23-.27.3-.35s.37-.43.57-.63c.39-.41.8-.79 1.22-1.16l.63-.52c-.53.43.15-.1.29-.2.33-.24.67-.46 1-.67a10.2 10.2 0 0 1 1-.57h-2.48c6.29 4.37 12.58 8.76 18.8 13.23l-1.2-2.2v3.72a2.48 2.48 0 0 0 1.24 2.15 40.45 40.45 0 0 0 12 3.87 32.37 32.37 0 0 0 11.65.29c7.9-1.4 13.52-7.49 15.9-14.93a26.3 26.3 0 0 0 1.28-6.87l-2.5 2.5 20.84-.1h3l-2.5-2.5a45.35 45.35 0 0 1-10.5 24 44.5 44.5 0 0 1-10.69 9.28 36.24 36.24 0 0 1-12.57 4.39 48.09 48.09 0 0 1-14.86 0 2.6 2.6 0 0 0-3.08 1.75 2.53 2.53 0 0 0 1.7 3.01z"/><path d="M297.51 233.12c-4.44-.18-6.6-.21-11-.12a9.32 9.32 0 0 0-5.68 1.74c-.34.25-.46 1.77-.6 2.18a2.18 2.18 0 0 0 .82 2.14c1.29 1.17 2.88 1.3 4.57 1.58a65.54 65.54 0 0 0 14 1.21 8.73 8.73 0 0 0 4.36-1.11 3.71 3.71 0 0 0 1.71-4s-2.47-3.38-8.18-3.62z" fill="#fff"/><path d="M297.51 230.62c-2.46-.1-4.92-.18-7.38-.17s-5.4-.16-7.89.73a8.55 8.55 0 0 0-3.32 1.9 5.57 5.57 0 0 0-1.08 2.92c-.58 3 1.05 5.2 3.78 6.29 2.34.93 5.15 1.09 7.63 1.43a59.54 59.54 0 0 0 9.14.67c2.77 0 5.8-.32 7.91-2.33 1.61-1.53 2.76-4.49 1.52-6.58a9.35 9.35 0 0 0-3-2.74 15.16 15.16 0 0 0-7.28-2.12c-3.22-.18-3.21 4.82 0 5a10.25 10.25 0 0 1 4.08 1c.23.12.46.25.68.39s.68.47.5.33.2.17.27.23.3.28.44.43.29.41.39.43c-.22 0-.36-.61-.46-.74-.36-.43.13-.32-.14.08a5.05 5.05 0 0 1-.25.45c-1 1.28-3.45 1.11-4.87 1.13a74.21 74.21 0 0 1-12.87-1.32 7.67 7.67 0 0 1-2.07-.52l-.68-.51c.12 0 0 .9.16.18a5 5 0 0 0 .16-.93c0-.07.12-.34.09-.39.15.26-1 .78-.38.63.33-.07.68-.41 1-.54a8.34 8.34 0 0 1 1.54-.41 38.23 38.23 0 0 1 6-.14c2.15 0 4.29.08 6.44.17 3.15.18 3.15-4.82-.06-4.95z"/><path d="M300.37 233.93a1.9 1.9 0 0 0 2.29-1.93 66 66 0 0 0-.79-7.35c-.55-4.13-1.4-8.41-3.95-11.73a5.15 5.15 0 0 0-2.13-1.8 2.4 2.4 0 0 0-2.63.48 3.51 3.51 0 0 0-.65 2c-.55 6.44.47 9.9 1.48 16.28a4.21 4.21 0 0 0 .8 1.79c.35.39.79 1.28 1.21 1.34z" fill="#fff"/><path d="M300.37 236.43a4.33 4.33 0 0 0 3.59-1.34 5 5 0 0 0 1.15-3.92c-.12-2.08-.4-4.12-.69-6.18-.7-5-1.6-10.11-4.95-14.11-1.75-2.1-4.7-3.26-7.22-1.74s-2.38 5.21-2.39 7.82a45.09 45.09 0 0 0 .64 7.24c.18 1.16.39 2.32.59 3.48a20.09 20.09 0 0 0 .79 3.85c.74 1.91 2 3.65 4.22 4.09l3.61.72a2.55 2.55 0 0 0 3.07-1.74 2.52 2.52 0 0 0-1.74-3.08 25.64 25.64 0 0 1-4.56-1l1.1.64a4.31 4.31 0 0 1-1-1.34 17.13 17.13 0 0 1-.59-3.13c-.29-1.7-.62-3.4-.84-5.11a37 37 0 0 1-.26-5.86 23.58 23.58 0 0 0 .23-2.62c0-.32-.27.38-.29.28s.47.29.51.33a10.53 10.53 0 0 1 2.62 4.48 32.49 32.49 0 0 1 1.32 5.76c.25 1.58.48 3.23.62 4.52.1.88.17 1.76.22 2.65 0 .27 0 .55.05.83v-.16a.57.57 0 0 1 .39-.35c.18 0 .11-.06-.22-.06a2.52 2.52 0 0 0-2.5 2.5 2.56 2.56 0 0 0 2.53 2.55z"/><path d="M287.23 241.18c-2.21 0-4.52.07-6.47 1.14s-3.37 3.51-2.58 5.62 3.26 2.92 5.44 3.27a65.29 65.29 0 0 0 14.79.28c2.35-.15 5-.54 6.31-2.57a4.1 4.1 0 0 0 .16-4 3.88 3.88 0 0 0-3.3-2.09z" fill="#fff"/><path d="M287.23 238.68c-3.41 0-7.14.33-9.63 3-2.31 2.45-2.93 6.2-.72 8.92 2 2.51 5.39 3 8.4 3.37a64.67 64.67 0 0 0 11.22.17c3-.17 6.38-.24 8.86-2.24a6.55 6.55 0 0 0 1.08-9.07c-2.21-2.79-6.45-2.63-9.72-3l-9.49-1.11a2.52 2.52 0 0 0-2.5 2.5 2.55 2.55 0 0 0 2.5 2.5l13.61 1.59c.74.09 1.55.13 1.88.94.69 1.66-1.37 2.35-2.58 2.59a44.81 44.81 0 0 1-7.94.47 41 41 0 0 1-8.57-.59c-1.43-.29-3.83-.92-3-2.82 1.06-2.32 4.45-2.15 6.56-2.18 3.26-.07 3.26-5.07.04-5.04z"/><path d="M284.78 252.39a6.93 6.93 0 0 0-4.43 2 4.74 4.74 0 0 0-1.23 4.94c.79 1.86 2.84 2.37 4.62 2.58a71.53 71.53 0 0 0 13.49.14c2.61-.19 5.4-.55 7.44-2.46a3 3 0 0 0 1.11-2.47c-.33-2.58-3-3-3.91-3.45 0-.04-5.13-1.78-17.09-1.28z" fill="#fff"/><path d="M284.78 250a8.92 8.92 0 0 0-7.63 4.9 6.25 6.25 0 0 0 2 7.9c2.41 1.64 5.87 1.59 8.66 1.72a74.77 74.77 0 0 0 10.19-.22c2.9-.26 5.79-.86 8-2.82a5.34 5.34 0 0 0 .39-8.07 8.58 8.58 0 0 0-2.74-1.6l-.92-.34c.72.27 0 0-.31-.12a15.19 15.19 0 0 0-1.91-.46 69.31 69.31 0 0 0-15.76-.86c-3 .12-3 4.83 0 4.71a81.61 81.61 0 0 1 12.31.35 4 4 0 0 1 .54.07l.8.12c.48.08 1 .17 1.43.27a6.29 6.29 0 0 0 1.31.33h.07c-1-.27.14.06.43.17s.51.18.76.29c-.34-.15 0 0 .08 0a3.86 3.86 0 0 1 .65.39c.1.08.33.44.23.65a4 4 0 0 1-2.13 1.48 20.92 20.92 0 0 1-6.44.88 72.18 72.18 0 0 1-8.19 0c-1.26-.08-4.78.11-5.36-1.45-.72-1.92 2-3.46 3.51-3.58a2.41 2.41 0 0 0 2.35-2.35 2.38 2.38 0 0 0-2.32-2.36z"/><path d="M506.65 387.64c.1-56.06 0-131.1 0-131.1h21.16c-1.67 48-4 88.42-5.09 138.82-.08 3.41-3.35 13.41-5.54 16-2.81 3.36-6.16 6.63-10.53 6.94V392c.14-4.81 0-4.87 0-4.87" fill="#fff"/><path d="M509.15 387.64q.06-34.35.05-68.71v-62.39l-2.5 2.5h21.16l-2.5-2.5c-.81 23.21-1.85 46.41-2.81 69.61q-.72 17.37-1.32 34.73-.31 9.18-.57 18.34l-.24 9.21c-.06 2.59.09 5.27-.23 7.84.07-.55 0 0 0 .1s-.11.56-.16.84c-.1.45-.2.89-.31 1.33-.27 1.09-.58 2.17-.92 3.25a47.34 47.34 0 0 1-2.16 5.71 19.8 19.8 0 0 1-1.23 2.21c-.35.53.37-.44-.05.06l-.76.89c-.48.53-1 1.06-1.47 1.56-1.74 1.73-3.88 3.38-6.41 3.61l2.5 2.5c0-8.78-.1-17.56 0-26.34 0-1.43.12-2.88.05-4.31a3 3 0 0 0-.78-2.34 2.57 2.57 0 0 0-3.54 0 2.52 2.52 0 0 0 0 3.53 3 3 0 0 1-.63-1.06s0-.85-.06-.49a7 7 0 0 0 0 .79c0 1.3 0 2.59-.06 3.89v26.33a2.52 2.52 0 0 0 2.5 2.5c5.36-.49 9.85-4.18 12.9-8.44 2.21-3.09 3.42-7.17 4.46-10.78a32.7 32.7 0 0 0 1.15-5.44c.28-2.71.16-5.5.23-8.23q.23-9.57.53-19.15c.74-23.83 1.79-47.65 2.8-71.48q.85-20.38 1.59-40.77a2.53 2.53 0 0 0-2.5-2.5h-21.21a2.53 2.53 0 0 0-2.5 2.5v131.1c0 3.22 5 3.22 5 0z"/><path d="M518.58 409.27c2.58-32.77 2.53-152.7 2.53-152.7h6.7c-1.61 46.24-3.84 85.46-5 133.35a34.43 34.43 0 0 1-2 10.68z"/><path d="M521.08 409.27c.72-9.22 1-18.48 1.23-27.73.36-12.71.58-25.43.75-38.16q.27-19.92.38-39.86.1-15.9.15-31.81v-10.19c0-1.56.13-3.18 0-4.74a1.47 1.47 0 0 1 0-.21l-2.5 2.5h6.7l-2.5-2.5c-.76 21.8-1.72 43.59-2.64 65.38-.92 22.15-1.76 44.31-2.29 66.47a37.63 37.63 0 0 1-1.12 8.91c-.37 1.37-.84 2.69-1.19 4.06l-1.9 7.24c-.82 3.12 4 4.45 4.82 1.33l1.69-6.44a75.57 75.57 0 0 0 2.44-10.43c.32-2.77.28-5.59.35-8.38s.15-5.85.24-8.77q.24-8.42.53-16.84c.78-21.72 1.78-43.4 2.63-65.1q.79-18.74 1.46-37.47a2.52 2.52 0 0 0-2.5-2.5h-6.7a2.54 2.54 0 0 0-2.5 2.5v12.25q0 15.12-.12 30.24-.12 19.71-.35 39.41c-.16 12.94-.36 25.88-.69 38.82-.25 9.81-.52 19.64-1.17 29.44l-.18 2.54a2.51 2.51 0 0 0 2.5 2.5 2.55 2.55 0 0 0 2.48-2.46z"/><path d="M286.72 262.5a9.15 9.15 0 0 0-3.54.43 4 4 0 0 0-2.35 2.69 3.72 3.72 0 0 0 2 3.72 10.51 10.51 0 0 0 4.37 1.12c4.19.43 8.48.64 12.55-.4a3.84 3.84 0 0 0 2.76-1.8c.65-1.5-.7-3.35-2.18-4.07a15.87 15.87 0 0 0-6.61-1.13z" fill="#fff"/><path d="M286.72 260.41c-2.49-.05-5.05.33-6.72 2.36a5.24 5.24 0 0 0-.22 6.56c1.52 2.08 3.91 2.79 6.35 3.1a52 52 0 0 0 8 .46c3.79-.12 12.48-1 10.36-7-1.62-4.59-6.93-4.7-11-5-2.26-.15-4.51-.37-6.77-.55a2.09 2.09 0 0 0 0 4.18l4.54.36a57.44 57.44 0 0 1 6 .46 6.61 6.61 0 0 1 2.24.72c.33.2 1 .71 1 1.17 0 .75-2.39 1-3 1.09a35.36 35.36 0 0 1-11.43-.14c-1-.16-3.35-.63-3.32-2.07 0-1.72 2.81-1.62 3.88-1.59 2.78.13 2.78-4.05.09-4.11z"/><path d="M352.41 257.93c.27-20.18-.34-24 1.57-44 1.34-14 5-29.49 16-38.28 6.24-5 10-6.5 18-7.44l-1.9 89.35z" fill="#fff"/><path d="M354.91 257.93c.17-13.15 0-26.25 1.15-39.37 1.16-13.51 3.11-28.9 13.26-38.92a34.78 34.78 0 0 1 8.76-6.33 30.7 30.7 0 0 1 9.94-2.58l-2.5-2.5-.19 8.91-.46 21.28-.55 25.85-.47 22.26-.16 7.39c0 1.15-.15 2.35-.07 3.5v.16l2.5-2.5-29.48.31h-4.23c-3.22 0-3.23 5 0 5l29.47-.31h4.24a2.54 2.54 0 0 0 2.5-2.5l.19-8.91.45-21.28.55-25.85.47-22.27c.08-3.61.32-7.27.23-10.89a.76.76 0 0 1 0-.15 2.51 2.51 0 0 0-2.5-2.5 39.22 39.22 0 0 0-10.15 2.27 37.3 37.3 0 0 0-9.11 5.55c-5.85 4.58-9.81 10.9-12.46 17.77a83.84 83.84 0 0 0-4.74 21.92c-.71 7-1.25 14.11-1.43 21.18-.21 7.85-.11 15.7-.21 23.54-.05 3.19 4.95 3.19 5-.03z"/><path d="M539.06 257.93c-.27-20.18.34-24-1.57-44-1.34-14-5.15-29.31-16-38.28-6.16-5.07-8.55-5.46-16.5-6.4l.41 88.31z" fill="#fff"/><path d="M541.56 257.93c-.09-7.06 0-14.12-.15-21.18-.12-6.67-.55-13.32-1.15-20-1.33-14.72-4.2-31-15.51-41.54a32.18 32.18 0 0 0-9.36-6.4c-3.3-1.36-6.94-1.66-10.45-2.08a2.51 2.51 0 0 0-2.5 2.5v8.79l.1 21.1.12 25.52.1 22c0 3.58-.1 7.2.05 10.77a.86.86 0 0 1 0 .16 2.55 2.55 0 0 0 2.5 2.5l29.48.31h4.23c3.22 0 3.23-5 0-5l-29.47-.31h-4.24l2.5 2.5v-8.79l-.1-21.1-.12-25.53-.1-22v-7.32c0-1.13.09-2.32 0-3.44v-.16l-2.5 2.5a36.11 36.11 0 0 1 8.38 1.61 17.38 17.38 0 0 1 3.12 1.65 35.54 35.54 0 0 1 3.8 2.89A38.43 38.43 0 0 1 531 194.64a88.3 88.3 0 0 1 4.12 21c.61 6.54 1.08 13.08 1.23 19.65.17 7.55.08 15.1.18 22.65.08 3.2 5.08 3.21 5.03-.01zM380.51 168.23l-1.54 89.35h7.45l1.27-89.35h-7.18z"/><path d="M516.51 175.12s11-1.94 11 82.16l11.55.65s4.94-70.42-22.55-82.81zM296 233.05l.25.13c.74.36.34 2.58 1 2.8 2.33.74 2.33 3.16.29 3.39-.46 0-1.07 2.3-1.54 2.5l2 3c3.23.83 3.65 3.58 0 4.24l-2 3.19.92 2.71c3.52 1.73 3.07 2.92.41 4.74l-1.33 2.34.72.55c.63.48.34 2.42.81 3 .91 1 .88 2.38-1 2.88-.69.18.27 1.79-.44 2.16h-.07l4.57-2.42a2.39 2.39 0 0 0 1-3.21l-.13-.27a3.73 3.73 0 0 1 .79-4.44l1.82-1.67a2.4 2.4 0 0 0 .17-3.35l-.69-.79a3.72 3.72 0 0 1-.22-4.64l1.39-1.92a2.42 2.42 0 0 0-.08-2.92l-.56-.69a3.74 3.74 0 0 1 .11-4.83 2.4 2.4 0 0 0-.21-3.41l-2.6-2.26zM310.51 291.67c3.79-1.95 6.59-5.72 8.72-9.3a34.76 34.76 0 0 0 4.65-11.86 2.59 2.59 0 0 0-1.75-3.08 2.53 2.53 0 0 0-3.08 1.75 29.37 29.37 0 0 1-4 10.41 27.5 27.5 0 0 1-3.34 4.71 19.64 19.64 0 0 1-1.9 1.86c-.11.1-.42.35-.14.13-.18.14-.37.27-.56.4a9.88 9.88 0 0 1-1.13.67 2.5 2.5 0 1 0 2.52 4.31zM508.66 377.89a75.16 75.16 0 0 0 17.07-1.42 2.52 2.52 0 0 0 1.75-3.07 2.56 2.56 0 0 0-3.08-1.75 68.88 68.88 0 0 1-15.74 1.24 2.53 2.53 0 0 0-2.5 2.5 2.56 2.56 0 0 0 2.5 2.5z"/></g></svg>