<svg xmlns="http://www.w3.org/2000/svg" viewBox="0 0 99.21 99.21"><path d="M67.7 27.44C68 23.76 65.06 20 61.12 21c-2.79.67-4.15 3.27-4.47 5.9q-.78 6.47-1.54 12.93l-.55 4.56 1.5-1.5-1.43-.17 1.5 1.5 3-25.09c.33-2.73-.71-5.64-3.41-6.74-3.79-1.56-7.08 1.74-7.54 5.32-.52 4-1 8.09-1.45 12.13l-1.6 13.43 1.5-1.5-1.44-.18 1.5 1.5 3.79-31.75c.35-2.89-.17-6-3.15-7.37a5.35 5.35 0 0 0-6.49 1.92 7.46 7.46 0 0 0-1.26 3.62c-.66 5.38-1.28 10.77-1.93 16.15l-2 16.48 1.5-1.5-1.44-.17 1.5 1.5c1-8.51 2.26-17 3-25.56.35-3.78-2.83-7.69-6.87-6.43-2.82.87-3.9 3.51-4.22 6.19l-1.68 14.69L25.8 44.6l2.8-.76-2.18-3.76a27.27 27.27 0 0 0-2.6-4.18c-2.24-2.58-5.67-2.38-7.9.09s-2.21 5.51-1.37 8.41c1.73 5.9 3.72 11.73 5.58 17.58.85 2.69 1.53 5.53 2.59 8.14.28.71-.16 0 .11-.42a2.78 2.78 0 0 0-.16.82l-.84 4.28-2.27 11.65c-.39 2-1.6 5.27 1.45 5.64 6 .74 12 1.43 18 2.15l19.53 2.33a2.15 2.15 0 0 0 2.6-1.32 9.78 9.78 0 0 0 .18-2.59l.48-11.52c.16-3.84.39-7.56.84-11.37l2.7-22.62 2.23-18.69.12-1-1.5 1.5c1.92.23 1.9-2.77 0-3-.87-.1-1.41.78-1.5 1.5l-3.26 27.46c-.92 7.67-2.16 15.35-2.49 23.07l-.43 10.37-.18 4.38-.06 1.39v.37c0 .12-.15 0 0-.23l.9-.69a1.6 1.6 0 0 1-.41 0l-1.24-.15-4.45-.53-13.31-1.57-13.2-1.58-4.3-.51a10.86 10.86 0 0 0-1.13-.13 1.36 1.36 0 0 0-.27 0c-.63.08.8 1.59 1 1.25a3.42 3.42 0 0 0 .2-1l.45-2.36 1.28-6.55c.64-3.28 1.51-6.6 1.93-9.92a5.62 5.62 0 0 0-.51-2.43l-1.6-5-4.21-13.36-1.53-4.81A12.57 12.57 0 0 1 17 41a4.26 4.26 0 0 1 2.06-3.75c1.36-.75 2.43.46 3.1 1.55 1 1.67 2 3.38 2.94 5.07l.9 1.49a1.51 1.51 0 0 0 2.79-.76l3.11-26.09c.12-1 .21-2.18.38-3.11.28-1.49 1.72-3.29 3.48-2.5 1.35.6 1.64 2.19 1.52 3.51-.4 4.09-1 8.16-1.46 12.23l-1.59 13.3c-.1.87.78 1.41 1.5 1.5l1.44.17c.87.1 1.41-.78 1.5-1.5l3.67-30.71c.21-1.72.16-3.87 2-4.71 2.25-1 3.45 1.59 3.29 3.41 0 .37-.09.74-.13 1.11l-2 16.85-1.79 15c-.1.87.78 1.42 1.5 1.5l1.44.18c.87.1 1.41-.78 1.5-1.5L51 19c.18-1.55.34-3.31 2.09-3.94s3 1.06 3.11 2.6a7.42 7.42 0 0 1-.1 1.49L54.58 32l-1.45 12.19c-.11.87.77 1.41 1.5 1.5l1.43.17c.87.11 1.42-.77 1.5-1.5l1.06-8.81c.35-3 .53-6.09 1.08-9.06.23-1.24 1.29-2.82 2.85-2.65 1.75.19 2.28 2.13 2.15 3.6-.16 1.93 2.84 1.91 3 0z" fill="currentColor"/><path d="M54.5 13.88a6.25 6.25 0 0 1 1.71 1.65 4.51 4.51 0 0 1 .57 2.12c.06 1.21.06 2.44.17 3.64A1.91 1.91 0 0 0 60 22.78a2.34 2.34 0 0 0 .66-.93l1.52-3.24c1.14-2.42 2.29-4.83 3.41-7.26a5.87 5.87 0 0 0-.37-6.06 5 5 0 0 0-7.65-.48 15.51 15.51 0 0 0-2.23 4.1l-1 2.18a2.38 2.38 0 0 0 .16 2.79 1.5 1.5 0 1 0 2.12-2.12l-.12-.16.38.66v-.2.8c0 .21-.12.17 0 0a3.13 3.13 0 0 0 .15-.32l.55-1.18 1.28-2.72a5.85 5.85 0 0 1 1.1-1.91 2 2 0 0 1 3.22.78c.6 1.42-.3 2.77-.89 4L59.64 17l-1.22 2.62a7.91 7.91 0 0 1-.6 1.2l.53-.54-.14.08.76-.2.59.23.38.66c.1.41 0-.1 0-.28l-.05-1.23c0-.71-.06-1.42-.1-2.13a7.4 7.4 0 0 0-3.15-5.68 1.54 1.54 0 0 0-2.12 0 1.52 1.52 0 0 0-.02 2.15z" fill="currentColor"/><path d="M60.33 22.2c.63 1.06 2 1.09 2.8 1.81a7.87 7.87 0 0 1 1.7 3c.55 1.29 2.06 2.11 3.22.9a3.37 3.37 0 0 0 .61-1l5.06-10.81 2-4.28c1.09-2.34 1.15-5.16-.88-7a5.08 5.08 0 0 0-8 1.67c-.62 1.24-1.18 2.51-1.77 3.76L61.9 17c-.63 1.34-1.69 2.91-1.77 4.41-.11 1.93 2.89 1.93 3 0 0 .28-.26.56-.13.27l.18-.36.68-1.47 2.07-4.42c1.16-2.46 2.28-4.93 3.46-7.38a3.15 3.15 0 0 1 .89-1.24 2 2 0 0 1 3 .87 3.52 3.52 0 0 1-.42 3.1L69.05 19l-2.28 4.87-.72 1.55a2.35 2.35 0 0 0-.21.42c-.15.64-.77-1.11 1-.37l.9.69c-.69-.91-.86-2.19-1.53-3.15a6.68 6.68 0 0 0-2.33-2.09c-.31-.16-.64-.28-1-.41-.12-.05-.24-.11-.37-.15-.57-.18 0-.25.35.31a1.5 1.5 0 0 0-2.53 1.53z" fill="currentColor"/><path d="M83 23.43c-3-1.54-5.56.34-6.71 3.1l-1.89 4.55-4 9.71 2.2-.89-1-.63.65 1.73 7-16.74c1-2.5 2.6-5.17 1.92-8s-3.59-4.79-6.35-3.33A6.47 6.47 0 0 0 72 16.51l-3.84 9.22c-1.07 2.6-2.38 5.19-3.26 7.86a21.43 21.43 0 0 0-.56 4.08l-1.16 9.83-2.43 20.39c-.57 4.77-.59 9.61-.83 14.4 0 .91-.34 2.31.17 3.14a1.85 1.85 0 0 0 3.22-.13 6.49 6.49 0 0 0 .33-.87L67 74.87c1.28-3.61 2.58-7.14 4-10.67l8.5-20.42c1.82-4.38 3.79-8.72 5.47-13.15a6 6 0 0 0-2-7.2c-1.59-1.1-3.09 1.5-1.51 2.59s.85 3.25.23 4.73l-1.81 4.36-6.15 14.94c-2.76 6.63-5.79 13.2-8.18 20l-3.07 8.7-1.32 3.76c-.14.4-.27.8-.43 1.2-.06.15-.29.5-.17.34l.9-.69c.61-.18 1.09 1.62 1.37.79a3 3 0 0 0 0-.73L63 80.9l.34-6.84c.09-1.87.13-3.75.35-5.61l2.78-23.3 1.16-9.78c0-.31 0-.63.12-.93s-.1.27.05 0c.58-1.14 1-2.4 1.49-3.58L74.21 19a11.15 11.15 0 0 1 1.35-2.88c1.25-1.49 2.63-.07 2.76 1.42a4.54 4.54 0 0 1-.43 2.14c-2.69 6.65-5.51 13.26-8.27 19.89l-.26.62a1.51 1.51 0 0 0 .69 1.7l1 .63a1.52 1.52 0 0 0 2.2-.9l3.39-8.16 2.07-5c.46-1.11 1.17-3.29 2.78-2.45s3.26-1.69 1.51-2.58z" fill="currentColor"/><path d="M62.24 22.68s3.63 3.44 1.12 13.39l-6.07 57.22 3.2-23 4.6-46.16z" fill="currentColor"/><path d="M61.18 23.74c.1.09.34.42 0 0a8.42 8.42 0 0 1 .56.9 10 10 0 0 1 .91 3.62c.23 2.87-.58 5.49-.88 8.3l-1.09 10.68-3.89 36.64-1 9.41c-.17 1.67 2.72 2.08 3 .4 1.12-8.07 2.53-16.15 3.34-24.26l3.34-33.52 1.17-11.75a1.49 1.49 0 0 0-.74-1.3L63 21.38c-1.71-.89-3.23 1.7-1.51 2.59l2.84 1.48-.74-1.29L60.71 53l-1.53 15.43c0 .52-.11 1-.16 1.55-.06.75.06-.35 0 .13q-.44 3-.85 6.06l-2.32 16.72 2.94.4 2.72-25.64 3.27-30.79c0-.26 0-.53.08-.79a27.2 27.2 0 0 0 .82-7.94c-.19-2.13-.68-4.91-2.38-6.52-1.38-1.34-3.51.78-2.12 2.13zM53.92 13.94s4.25 1.69 2.08 13.85l-1 16.34 1.58-8.64.16-20.06z" fill="currentColor"/><path d="M53.52 15.39c-.76-.31-.33-.11-.21-.07.38.12-.08-.15.15.11l.23.24c.25.25 0-.09.08.09a6 6 0 0 1 .55 1c1.07 2.28.9 5.78.58 8.45-.53 4.52-.78 9-1 13.59l-.33 5.38c-.1 1.66 2.64 2.07 2.95.4l1.11-6.11a21.77 21.77 0 0 0 .52-3.67l.12-14.52v-4.8a1.48 1.48 0 0 0-.74-1.3l-2.85-1.48c-1.71-.89-3.22 1.69-1.51 2.59L56 16.72l-.75-1.29-.09 11.76-.05 6.81a11.21 11.21 0 0 0 0 1.42c0-.3.08-.48 0-.05s-.16.92-.25 1.37l-1.26 7 2.94.4.78-13.14c.31-5.16 1.91-10.8-.37-15.71a5.26 5.26 0 0 0-2.63-2.76c-1.79-.77-2.57 2.13-.8 2.86zM45.71 5.21s4.55 3.38 2 13.32l-1.23 22v1.87l1.84-34.2z" fill="currentColor"/><path d="M45 6.51c-.62-.46-.11-.09 0 .06l.31.35s.17.21 0 0a3.71 3.71 0 0 1 .23.32 9.43 9.43 0 0 1 1.34 3.58c.52 3.06-.49 5.91-.66 8.92l-1 17.35c-.1 1.77-.19 3.53-.23 5.3 0 1.94 2.89 1.92 3 0l1.76-32.95a5.91 5.91 0 0 0 0-1.68c-.19-.7-1.06-1.43-1.53-1.95l-1.45-1.66c-1.28-1.44-3.4.68-2.12 2.13l2.61 2.94-.44-1.06-1.62 30-.2 4.2h3c.11-4.78.47-9.56.74-14.34l.46-8.25a13.92 13.92 0 0 1 .31-2.15 20.7 20.7 0 0 0 .29-7.36 9.83 9.83 0 0 0-3.32-6.34C44.92 2.76 43.43 5.36 45 6.51zM35.38 11.58S39 15 36.5 25l-.24 14.8.39 1.88 2-26.37z" fill="currentColor"/><path d="m34.32 12.64.15.17c.13.14-.23-.34 0-.05l.24.37a6.66 6.66 0 0 1 .87 2.23 14.63 14.63 0 0 1 .31 4.33c-.1 1.81-.7 3.54-.85 5.32-.14 1.58 0 3.21-.08 4.8l-.12 7.52a20.35 20.35 0 0 0 .4 4.73c.36 1.75 2.83 1.2 2.95-.4l.91-12.07c.35-4.66 1-9.38 1.06-14.06a2.93 2.93 0 0 0-1.06-2l-2.62-3c-1.28-1.45-3.39.68-2.12 2.12l3.26 3.71-.44-1.06-1.75 23.1-.24 3.27 2.94-.4c-.09-.46-.18-.93-.28-1.39-.06-.26 0-.78-.05-.09a.86.86 0 0 1 0-.16 11.23 11.23 0 0 0 0-2l.12-7.63a36.7 36.7 0 0 1 .08-5 50.49 50.49 0 0 0 .87-5.66 17.63 17.63 0 0 0-.39-4.58 8.61 8.61 0 0 0-2-4.25c-1.43-1.33-3.55.79-2.16 2.13zM28.6 43.84l-2.68-3.58-1.59-2.12a7.53 7.53 0 0 0-1.94-2c-1.52-1-3.32-.86-5-.66a1.54 1.54 0 0 0-1.5 1.5c0 .74.66 1.61 1.5 1.5.64-.07 1.29-.12 1.93-.14h.65c.24 0-.12.06-.13 0s.48.11.51.12l.21.07c-.23-.08.06 0 .11.06l.25.15s.27.2.15.1.07.07.07.07l.21.21a2.41 2.41 0 0 0 .2.22l-.14-.18v.05l.36.48L25 44l1 1.34a1.54 1.54 0 0 0 2 .53 1.51 1.51 0 0 0 .54-2zM81.47 25.54s2.25 5.18-2.78 14.11L57.19 93l9.3-21.25 17.08-43.1z" fill="currentColor"/><path d="M80.17 26.3c-.31-.73 0-.07 0 .12s.21 1 .21 1a14 14 0 0 1-.3 4.7c-.62 2.75-2 5.06-3.06 7.63L73 49.86l-13.69 34-3.54 8.78c-.63 1.56 2.06 2.71 2.74 1.15 3.39-7.74 7-15.41 10.12-23.27l13.56-34.33 2.5-6.31a3.33 3.33 0 0 0 .38-1.23c0-.73-.67-1.44-1-2l-1.26-1.85c-1.08-1.59-3.68-.09-2.59 1.51l2.11 3.11-.15-1.15-10.68 27-5.71 14.4-.57 1.45c-.27.69.15-.31 0 .13-.84 1.86-1.64 3.74-2.46 5.6l-6.87 15.42 2.74 1.15 9.59-23.8 11.59-28.77c.11-.26.19-.54.32-.79a30.32 30.32 0 0 0 2.92-7.43c.52-2.52.74-5.42-.29-7.84a1.5 1.5 0 0 0-2.05-.54 1.54 1.54 0 0 0-.54 2.05zM71.7 5.81s4.83-1.49 1 9.21l-7.47 18.22-.42 1.43 7.42-22.25a9.61 9.61 0 0 0 .36-3.11z" fill="currentColor"/><path d="M72.1 7.26a1.6 1.6 0 0 0 .21 0c-.89.3.65-.24-.09 0 .08 0 .21.07.29.08-.35-.06-.23-.13-.1 0s0 0-.06 0c0 .28 0-.11.09.07s0-.08.16.39c.5 2.03-.6 5.2-1.52 7.3L65.2 29.41a48.35 48.35 0 0 0-1.83 4.86c-.55 1.87 2.28 2.62 2.89.8 2.45-7.36 5.07-14.68 7.37-22.1A8.85 8.85 0 0 0 74 8.73c-.23-1.11-.56-2.21-.84-3.32-.47-1.87-3.37-1.07-2.89.8l.74 3a5.63 5.63 0 0 1-.25 3c-.41 1.32-.88 2.63-1.32 3.95l-4.8 14.39-1.26 3.79 2.89.8c1.35-4.57 3.52-9 5.32-13.37.84-2 1.71-4.05 2.51-6.1 1-2.6 2.32-6.36 1.25-9.16a3.32 3.32 0 0 0-4-2.07c-1.89.48-1.1 3.38.75 2.82zM77.89 15.2s3.61-1.52.25 7.66l-6.45 15.66-.39 1.22 6.63-19a9.49 9.49 0 0 0 .42-2.62z" fill="currentColor"/><path d="M78.29 16.64c.49-.2-.22-.05.22 0-.42 0-.08.05-.4-.11.3.15-.16-.17 0 0-.13-.14-.14 0-.11-.18 0 0 .09.54.07.23a15.41 15.41 0 0 1-1.6 6.42l-5 12.25c-.56 1.36-1.13 2.7-1.57 4.1-.59 1.86 2.26 2.61 2.89.8 2.19-6.28 4.49-12.54 6.56-18.86a8.61 8.61 0 0 0 .48-3.62c-.11-1-.3-1.91-.45-2.86-.3-1.9-3.19-1.1-2.89.79.13.84.32 1.68.4 2.52a6.25 6.25 0 0 1-.42 2.35c-.39 1.18-.82 2.36-1.24 3.54L71 36.11l-1.12 3.23 2.89.8c1.23-3.88 3-7.63 4.58-11.39.73-1.78 1.49-3.55 2.2-5.34.88-2.24 2.13-5.46 1.34-7.91a2.62 2.62 0 0 0-3.38-1.75c-1.78.72-1.01 3.62.78 2.89z" fill="currentColor"/></svg>