<svg xmlns="http://www.w3.org/2000/svg" viewBox="0 0 99.21 99.21"><path d="M6.36 77.21h87.27a1.52 1.52 0 0 0 1.5-1.5 7.9 7.9 0 0 0-5.41-7.5l1.1 1.45A38.24 38.24 0 0 0 84.18 46a52.13 52.13 0 0 0-13-13 59.67 59.67 0 0 0-5.26-3.32l.74 1.3a30.19 30.19 0 0 0-.05-5.38c-.23-1.21-2-1.9-3-2.4a20.71 20.71 0 0 0-9.14-2.13l1.5 1.5c-.09-1.51-.17-3-.26-4.52a1.52 1.52 0 0 0-1.5-1.5l-8-.12a1.51 1.51 0 0 0-1.5 1.5l-.06 3.57 1.5-1.5a21.13 21.13 0 0 0-9.5 2c-.95.44-2.64 1.07-3.2 2a8.42 8.42 0 0 0-.45 2.72l-.41 2.88.69-.9a46.05 46.05 0 0 0-22.8 27.1 39.91 39.91 0 0 0-1.67 12.9l1.1-1.45c-3.52 1.38-5.23 4.77-5 8.46.09 1.92 3.09 1.93 3 0-.11-2.21.61-4.69 2.85-5.56a1.55 1.55 0 0 0 1.1-1.45C11.32 56 17.63 43.93 27.39 36a42.83 42.83 0 0 1 5.7-3.85 12.2 12.2 0 0 0 1.81-1 2.4 2.4 0 0 0 .68-1.74l.61-4.32-.68.9a18.18 18.18 0 0 1 10.6-3 1.52 1.52 0 0 0 1.5-1.5l.06-3.49-1.5 1.5 8 .12-1.5-1.5c.09 1.51.17 3 .26 4.52a1.52 1.52 0 0 0 1.5 1.5 17.75 17.75 0 0 1 9.88 3l-.74-1.3v5.18a1.51 1.51 0 0 0 .75 1.29c9.21 5.16 17.57 13 21.33 23.05a35.26 35.26 0 0 1 2.12 14.32 1.54 1.54 0 0 0 1.11 1.44 4.91 4.91 0 0 1 3.2 4.61l1.5-1.5H6.36a1.5 1.5 0 0 0 0 2.98z" fill="currentColor"/><path d="M10.82 71h77a1.5 1.5 0 0 0 0-3h-77a1.5 1.5 0 0 0 0 3zM66.93 42.27q-.12-5.44-.23-10.89a1.5 1.5 0 1 0-3 0q.11 5.44.23 10.89a1.5 1.5 0 1 0 3 0zM33.92 41.67l1.17-10.83a1.5 1.5 0 0 0-3 0l-1.17 10.83a1.5 1.5 0 0 0 3 0zM40.67 62.29H16.32l1.5 1.5a18.23 18.23 0 0 1 3.31-11.16c1.11-1.59-1.49-3.09-2.59-1.51a20.86 20.86 0 0 0-3.72 12.67 1.53 1.53 0 0 0 1.5 1.5l24.35.05a1.5 1.5 0 0 0 0-3zM44.68 22.22l-.13 16a1.52 1.52 0 0 0 1.5 1.5h8.35a1.52 1.52 0 0 0 1.5-1.5l.1-15.63a1.5 1.5 0 0 0-3 0l-.06 15.6 1.5-1.5h-8.35l1.5 1.5.13-16a1.5 1.5 0 0 0-3 0z" fill="currentColor"/><path d="M65.73 32.37c-.15.16 2.31 2.34 5.67 6 1.51 1.63 2.69 3 3.46 3.92a61.37 61.37 0 0 1 8.91 16.19 10.12 10.12 0 0 1 .37 6.64 4.92 4.92 0 0 1-1.73 2.46 5.32 5.32 0 0 1-2.78.76 36.26 36.26 0 0 1-5.63-.16 17 17 0 0 0 2.94.75 40.47 40.47 0 0 0 7.44.83c2.17 0 3.33-.12 4-.94.4-.52.48-1.17.27-3a40.32 40.32 0 0 0-1.5-6.82c-1.1-3.92-.8-3.37-1.28-4.79a34 34 0 0 0-3.61-7.45c-2.53-3.85-6.09-6.6-13.26-12.11-1-.78-3.14-2.43-3.27-2.28z" fill="currentColor"/></svg>