<svg xmlns="http://www.w3.org/2000/svg" viewBox="0 0 42 42"><path d="M4.91,17.26Q12,10.33,19,3.29H18.1l16.26,16,.45-1.08-5.18.1a.73.73,0,0,0-.44.19A.64.64,0,0,0,29,19v2.07l.21-.45a6.37,6.37,0,0,0-1.53,7.34,5.75,5.75,0,0,0,1.82,2.21A8.47,8.47,0,0,0,32,31.2l-.16-1.14a17,17,0,0,0-4.06,2.11,10.47,10.47,0,0,0-2.88,3.46l.55-.31-17.39,0,.63.63v-17a.65.65,0,0,0-.63-.64l-5.63-.15.45,1.09,2-2c.59-.57-.31-1.46-.89-.89L2,18.32a.67.67,0,0,0-.17.32.73.73,0,0,0,0,.36.66.66,0,0,0,.23.29.61.61,0,0,0,.35.11l5.63.15-.64-.63v17a.64.64,0,0,0,.19.45.68.68,0,0,0,.45.19l17.39,0a.56.56,0,0,0,.31-.09.54.54,0,0,0,.23-.22A9.2,9.2,0,0,1,28.76,33a17.59,17.59,0,0,1,3.76-1.87c.55-.24.31-1-.15-1.17a7.3,7.3,0,0,1-2.23-.92,4.55,4.55,0,0,1-1.58-2.38A5.21,5.21,0,0,1,29,22.87a4.49,4.49,0,0,1,.52-.79c.19-.24.47-.42.66-.67a2.2,2.2,0,0,0,.13-1.11V19l-.67.65,5.16-.1a.7.7,0,0,0,.34-.12.53.53,0,0,0,.23-.28.63.63,0,0,0,0-.36.68.68,0,0,0-.16-.33L19,2.4a.62.62,0,0,0-.44-.18.63.63,0,0,0-.45.18q-7,7-14.08,14C3.43,16.93,4.33,17.84,4.91,17.26Z" fill="currentColor"/><path d="M37,25.32a4.28,4.28,0,0,1-8.54.36A4.2,4.2,0,0,1,29,23.16a4.26,4.26,0,0,1,7-.57,4.33,4.33,0,0,1,1,2.73.64.64,0,0,0,1.09.45.63.63,0,0,0,.18-.45,5.53,5.53,0,1,0-1.07,3.28,5.52,5.52,0,0,0,1.07-3.28.64.64,0,0,0-1.08-.45A.64.64,0,0,0,37,25.32Z" fill="currentColor"/><path d="M40.12,39.79A8.49,8.49,0,0,0,35,31.15a7.7,7.7,0,0,0-9.1,2.73,8.47,8.47,0,0,0-1.61,5.92.64.64,0,0,0,.19.45.68.68,0,0,0,.44.19H39.48a.64.64,0,0,0,.45-1.09.63.63,0,0,0-.45-.18H25l.63.63a7.29,7.29,0,0,1,4.29-7.49,6.49,6.49,0,0,1,7.68,2.43,7.4,7.4,0,0,1,1.3,5.08C38.77,40.61,40,40.61,40.12,39.79Z" fill="currentColor"/><path d="M32.3,31.87a5.17,5.17,0,0,1,2.6.7c2,1.19,3,3.84,2.7,6.74l1.31,0a6.41,6.41,0,0,0-2.25-6.19A6.3,6.3,0,0,0,32.3,31.87Z" fill="currentColor"/><path d="M33.42,21a5.09,5.09,0,0,1,2.14,6.54A5.29,5.29,0,0,1,33.21,30,5.21,5.21,0,0,0,36,28.53a4.8,4.8,0,0,0,1.33-4,4,4,0,0,0-.81-1.69A5.16,5.16,0,0,0,33.42,21Z" fill="currentColor"/><path d="M17.94,3.94,30.72,16.72l.42.48a.38.38,0,0,1,.13.25.45.45,0,0,1-.15.42.35.35,0,0,1-.14.06.26.26,0,0,1-.15,0H28.75a.37.37,0,0,0-.27.07c-.19.13-.2.47-.21.7a22.6,22.6,0,0,0,0,2.33c0,.43,0,.66.1.71s.33-.22.62-.58c.11-.15.22-.31.32-.47a2.29,2.29,0,0,1,0-1.63,1.24,1.24,0,0,1,.29-.46c.75,0,1.5-.08,2.28-.09s1.36,0,2,0L18.63,3.5Z" fill="currentColor"/><path d="M16.76,35.59l-.05-11.43-.62.63h6.56L22,24.16V35.74a.64.64,0,0,0,.19.45.63.63,0,0,0,1.08-.45V24.16a.63.63,0,0,0-.18-.45.64.64,0,0,0-.45-.19H16.09a.64.64,0,0,0-.45.19.68.68,0,0,0-.19.45l.05,11.43a.65.65,0,0,0,.19.45.65.65,0,0,0,.9,0,.64.64,0,0,0,.18-.45Z" fill="currentColor"/></svg>