<svg xmlns="http://www.w3.org/2000/svg" viewBox="0 0 99.21 99.21"><path d="M31.49 20.08a12.17 12.17 0 1 0 8.74 14.82 12.19 12.19 0 0 0-8.74-14.82zm-5.22 20.2A8.69 8.69 0 1 1 36.86 34a8.7 8.7 0 0 1-10.59 6.28zM35.8 6.84a6.08 6.08 0 1 0 4.37 7.41 6.1 6.1 0 0 0-4.37-7.41zm-2.17 8.41a2.6 2.6 0 1 1 3.18-1.87 2.6 2.6 0 0 1-3.18 1.87zM61.53 4.51a6.08 6.08 0 1 0 4.37 7.4 6.09 6.09 0 0 0-4.37-7.4zm-2.17 8.41A2.61 2.61 0 1 1 62.53 11a2.61 2.61 0 0 1-3.17 1.92zM49.23 13.9a7 7 0 1 0 5 8.46 6.95 6.95 0 0 0-5-8.46zM46.63 24a3.48 3.48 0 1 1 4.23-2.5 3.48 3.48 0 0 1-4.23 2.5zM40.55 47.55a8.69 8.69 0 1 0 6.25 10.58 8.69 8.69 0 0 0-6.25-10.58zM37.08 61a5.21 5.21 0 1 1 6.35-3.75A5.22 5.22 0 0 1 37.08 61z" fill="currentColor"/><path d="M90.43 61 76.31 37a7 7 0 0 0-9.52-2.46l-4.39 2.61a1.74 1.74 0 0 0 1.77 3l4.38-2.59a3.48 3.48 0 0 1 4.76 1.23l14.13 24a3.48 3.48 0 0 1-1.22 4.75L43.15 92.88a3.42 3.42 0 0 1-2.62.36 3.42 3.42 0 0 1-2.13-1.58L24.28 67.71A3.48 3.48 0 0 1 25.49 63l.72-.43a1.73 1.73 0 1 0-1.76-3l-.72.43a6.94 6.94 0 0 0-2.45 9.51l14.13 23.9a6.86 6.86 0 0 0 4.25 3.19 6.89 6.89 0 0 0 5.25-.72L88 70.48A6.93 6.93 0 0 0 90.43 61z" fill="currentColor"/><path d="m70.55 36.87 14.12 23.94a3.46 3.46 0 0 1-1.22 4.75L40.39 91a3.43 3.43 0 0 1-2.62.36c-.9-.23 1 .93.53.13L24.17 67.5a3.47 3.47 0 0 1 1.21-4.75l.72-.43a1.73 1.73 0 0 0 .62-2.32 1.75 1.75 0 0 0-2.38-.62l-.72.43a6.94 6.94 0 0 0-2.45 9.51L35.3 93.2c.94 1.6.5 0 1.59 1.47a6.86 6.86 0 0 0 5.27-.67l43.06-25.4a6.94 6.94 0 0 0 2.45-9.5l-14.13-24" fill="currentColor"/><path d="M55.51 42.41a5.26 5.26 0 0 1-9.88.93 5.27 5.27 0 1 1 9.88-.93c-.45 1.88 2.44 2.68 2.9.8a8.39 8.39 0 0 0-3.35-8.92 8.27 8.27 0 0 0-12.59 9.16 8.28 8.28 0 0 0 15.94-.24 1.51 1.51 0 0 0-2.9-.8z" fill="currentColor"/><path d="M51.83 34.51a6.67 6.67 0 0 1 4.39 8.11 6.77 6.77 0 0 1-7.48 5S54.93 49 57 42.81c0 0 1.61-6.55-5.17-8.3z" fill="currentColor"/><path d="M51.43 36a5.22 5.22 0 0 1 3.34 6.27 5.34 5.34 0 0 1-6 3.94 1.5 1.5 0 0 0-.4 2.94 8.64 8.64 0 0 0 8.24-2.56 8.45 8.45 0 0 0 1.49-8.61 8.32 8.32 0 0 0-5.84-4.87 1.5 1.5 0 0 0-.8 2.89 8.86 8.86 0 0 1 1.39.49c.21.11.42.22.62.34s.59.42.4.27c.18.15.34.3.5.46l.18.19s.26.32.12.14l.11.15.13.21c.11.18.21.37.31.57s.13.33 0 0a1.8 1.8 0 0 0 .08.21l.15.47c0 .15.07.31.11.46s0 .17 0 .25c.08.35 0-.13 0 0a11 11 0 0 1 0 1.62v.3c0 .36.08-.39 0-.07 0 .1 0 .21-.06.32a5.89 5.89 0 0 1-.93 1.9 2 2 0 0 1-.24.29 5.9 5.9 0 0 1-.5.5l-.21.18c.21-.17 0 0-.07 0a6 6 0 0 1-.6.37l-.44.22c.33-.15-.22.08-.31.11a6.67 6.67 0 0 1-1.07.26c-.42.08.2 0-.21 0h-1.7c-.36 0 .31.11.1 0a1.55 1.55 0 0 0-.21 0l-.4 2.95a8.28 8.28 0 0 0 3.49-16.1 1.5 1.5 0 1 0-.8 2.89zM39.12 49.18a6.68 6.68 0 0 1 4.39 8.11 6.77 6.77 0 0 1-7.48 5s6.18 1.36 8.22-4.85c0 .04 1.65-6.5-5.13-8.26z" fill="currentColor"/><path d="M38.72 50.62a5.22 5.22 0 0 1 3.34 6.27 5.35 5.35 0 0 1-6 3.94 1.49 1.49 0 0 0-1.48 1.3 1.5 1.5 0 0 0 1.08 1.65 8.66 8.66 0 0 0 8.24-2.57 8.45 8.45 0 0 0 1.49-8.61 8.33 8.33 0 0 0-5.85-4.87 1.5 1.5 0 0 0-.79 2.89 8.86 8.86 0 0 1 1.39.49l.61.34c.09.06.59.43.41.27.17.15.34.3.5.46l.18.19s.26.32.12.15l.1.14.14.21c.11.18.21.38.31.57s.13.33 0 0c0 .07 0 .14.07.21a3.68 3.68 0 0 1 .15.47 3.84 3.84 0 0 1 .11.46v.26c.08.34 0-.14 0 0a9.84 9.84 0 0 1 0 1.63v.29c0 .37.07-.39 0-.07l-.06.32a5.92 5.92 0 0 1-.94 1.9 2.52 2.52 0 0 1-.23.29 5.9 5.9 0 0 1-.5.5l-.21.18c.21-.17 0 0-.07 0a6 6 0 0 1-.6.37c-.14.08-.29.15-.44.22.32-.15-.23.08-.31.11a6.54 6.54 0 0 1-1.08.26c-.41.08.21 0-.2 0h-1.7c-.36 0 .31.11.1 0a1.55 1.55 0 0 0-.21 0L36 63.83a8.28 8.28 0 0 0 3.48-16.1 1.5 1.5 0 1 0-.79 2.89zM58.41 54.24a6.64 6.64 0 1 0 4.77 8.08 6.64 6.64 0 0 0-4.77-8.08zm-2.66 10.29a4 4 0 1 1 4.86-2.87 4 4 0 0 1-4.86 2.87z" fill="currentColor"/><path d="M57.31 55.48a5.1 5.1 0 0 1 3.36 6.2A5.17 5.17 0 0 1 55 65.53a5.38 5.38 0 0 0 6.28-3.7s1.22-5.01-3.97-6.35z" fill="currentColor"/><path d="M56.91 56.93c.05 0 .42.15.18 0 .15.07.3.14.44.22l.36.23a.83.83 0 0 1 .16.12c-.12-.1-.11-.09 0 0s.39.38.56.59c-.18-.23.07.11.09.14l.21.35a4 4 0 0 1 .17.36c-.11-.28 0 .09 0 .15s.07.26.11.4.08.5.06.34 0 .24 0 .29v.49c0 .16-.07.47 0 .17a3 3 0 0 1-.09.43l-.12.42c-.12.4.12-.21-.07.16a7.38 7.38 0 0 1-.41.72c-.1.14-.11.15 0 0l-.13.15-.28.3-.31.27c-.08.06-.06.06 0 0l-.22.15a4.43 4.43 0 0 1-.71.39c.29-.13-.11 0-.14 0l-.39.12-.4.08c.32-.06-.07 0-.15 0a4.51 4.51 0 0 1-1 0 1.5 1.5 0 0 0-.4 3 7 7 0 0 0 6.64-2A6.82 6.82 0 0 0 62.42 58a6.71 6.71 0 0 0-4.71-4 1.5 1.5 0 0 0-.8 2.9 5.35 5.35 0 0 1 .68.21l.25.09c-.28-.11 0 0 0 0l.47.26.19.13c.15.1.23.19.05 0A4.14 4.14 0 0 1 59 58c.05 0 .35.4.21.22s.11.17.15.23.16.29.23.44-.09-.3 0 .08c0 .12.08.24.11.36s.06.23.08.35a1.42 1.42 0 0 1 0 .2c.07.32 0-.25 0-.1 0 .42.05.82 0 1.24a1.79 1.79 0 0 0 0 .23c0 .31.07-.43 0-.15 0 .08 0 .16-.05.25a4.19 4.19 0 0 1-.16.46c.1-.25-.09.18-.13.26s-.25.43-.39.64-.18.21 0 0c0 .06-.09.12-.14.17a3.59 3.59 0 0 1-.39.39l-.16.13c.27-.23.11-.07 0 0l-.45.28a1.2 1.2 0 0 1-.34.17c.32-.05.19-.07.06 0l-.21.08c-.27.08-.55.14-.83.2s.32 0-.06 0h-1.29.33-.22L55 67a6.68 6.68 0 0 0 2.76-13 1.52 1.52 0 0 0-1.85 1 1.54 1.54 0 0 0 1 1.93zM30.29 21.84a10.08 10.08 0 0 1 6.63 12.25 10.22 10.22 0 0 1-11.29 7.61S35 43.74 38 34.38c0 0 2.53-9.88-7.71-12.54z" fill="currentColor"/><path d="M29.89 23.29a8.68 8.68 0 0 1 5.59 10.4 8.88 8.88 0 0 1-9.85 6.51c-1.68-.22-2 2.59-.4 2.94a12.28 12.28 0 0 0 11.7-3.68 12 12 0 0 0 2-12.25c-1.45-3.62-4.6-5.82-8.29-6.82a1.51 1.51 0 0 0-.8 2.9 8.92 8.92 0 0 1 6.16 4.6 9.52 9.52 0 0 1 .74 5c0 .15 0 .3-.05.45 0 .44.06-.29 0 .09 0 .16-.05.33-.09.49a9.41 9.41 0 0 1-1.49 3.05 8.52 8.52 0 0 1-5.65 3.35 13.56 13.56 0 0 1-2.56.09h-.52c-.45 0 .24-.05 0 0a1.13 1.13 0 0 1-.32-.06l-.4 3a11.74 11.74 0 0 0 5.06-22.81c-1.86-.76-2.65 2.14-.83 2.75z" fill="currentColor"/></svg>