<svg xmlns="http://www.w3.org/2000/svg" viewBox="0 0 99.21 99.21"><path d="M68.13 17.79a4.79 4.79 0 0 0 .11 1.37c-.11-.16.29-.51.08-.38s-.16.36-.19.44-.37 1.26-.24.88c0-.1.3-.15 0 0 .23-.09-.2.05-.25.06-1.44.32-3.29-.09-4.82-.15s-3.41 0-4.59 1.13-1.06 2.86-1.04 4.25a75 75 0 0 0 1.33 11.86 8.89 8.89 0 0 0 3.13 5.33 12.49 12.49 0 0 1 3.47 4.13 30.84 30.84 0 0 1 1.75 8.84c.35 3.91.44 7.85.42 11.77 0 6.51-.3 13.05-.94 19.53 0 .37-.07.74-.11 1.11 0 .14 0 .61 0 0a.86.86 0 0 1 0 .27c-.19.36.14-.16 0 0s.21-.09-.12.1l-.24.14-.22.11c-.34.17 0 0-.27.12a26.45 26.45 0 0 1-8.31 1.3 60.66 60.66 0 0 1-10.26-.4 25.76 25.76 0 0 1-3.89-.78 6.59 6.59 0 0 1-1.18-.42c-.18-.09-.35-.18-.53-.29s-.38-.25 0 0c0 0-.21-.17-.2-.2s0 .27 0 0c0 .18.17.16.07.15s0 .51 0-.15v-.68c0-1.29-.1-2.58-.16-3.88-.12-2.66-.25-5.33-.35-8-.2-5.33-.34-10.68 0-16 .25-4.09.67-8.74 2.84-12.32a25.29 25.29 0 0 1 3.73-4.65 10.73 10.73 0 0 0 2.61-3.71c1.31-3.29 1-7.19 1.14-10.68 0-1.87.11-3.75.16-5.62 0-1.6-.52-2.43-2.13-2.76a18.94 18.94 0 0 0-5.1-.25c-1.47.11-3.17.29-4.08 1.59a28.91 28.91 0 0 1-8.06 7.4c-1.27.82-2.92 1.88-4.39 1.95l1.06.44.38 1.45c-.16.51.24-.15.34-.27.34-.39.69-.77 1-1.14.68-.72 1.38-1.42 2.05-2.15a23.56 23.56 0 0 0 3.69-5.23 43.8 43.8 0 0 0 3.23-9.67c.31-1.31.28-2.38-1.07-3.06a17.94 17.94 0 0 0-2.13-.75 5.44 5.44 0 0 0-.85-.34c-.14 0-.11 0 0 .21s0-.12.06-.26a16.57 16.57 0 0 1 .55-1.82 6.45 6.45 0 0 0 .48-1.19A9.11 9.11 0 0 0 35 7.2c-.1 0-.48-.11-.2 0l.53.13c3.55 1 7 2.29 10.5 3.5q7.3 2.55 14.6 5.19l6.24 2.27 1.82.67.54.2c.33.12 0 .05-.13-.06 1.54 1.16 3-1.44 1.51-2.59a10.09 10.09 0 0 0-2.41-.93l-5.39-2q-7.48-2.7-15-5.35C43.86 7 40.11 5.54 36.27 4.47A5 5 0 0 0 35 4.19c-1.08 0-1.43.81-1.78 1.66a10.34 10.34 0 0 0-1.1 4.09c.06 1.8 1.78 2.49 3.26 3a4.1 4.1 0 0 0 1.17.38c.25 0 .37.72 0-.45-.31-.93-.11-.51-.24-.23a10.55 10.55 0 0 0-.49 2 40.3 40.3 0 0 1-1.9 5.91 21.46 21.46 0 0 1-4.12 6.26c-.75.82-1.54 1.6-2.29 2.42a6.67 6.67 0 0 0-1.63 2.18 1.45 1.45 0 0 0 .39 1.46c1.37 1.18 3.92-.17 5.25-.88a32.52 32.52 0 0 0 5.29-3.65 32.68 32.68 0 0 0 4.41-4.23 7.36 7.36 0 0 0 1.17-1.61c-.14.31-.27.19 0 .14s.67-.16 1-.21a14.9 14.9 0 0 1 4.94.14 1.18 1.18 0 0 0 .3.07c.43 0 0 .11.07 0l-.6-1v.16a2 2 0 0 0 0 .55c0 .91 0 1.82-.08 2.72q-.08 3-.18 6a27.69 27.69 0 0 1-.39 5 7.44 7.44 0 0 1-2 3.87 36.39 36.39 0 0 0-3.77 4.44c-2.54 3.55-3.36 8-3.8 12.27a121.43 121.43 0 0 0-.3 16c.08 2.71.2 5.43.32 8.14.11 2.51.07 5.07.32 7.56s3.07 3.19 5 3.65a48 48 0 0 0 9.87 1 53.47 53.47 0 0 0 10.11-.65c2-.34 5.1-.92 5.82-3.12a21.73 21.73 0 0 0 .54-4.77q.39-4.92.57-9.87c.3-7.84.44-15.88-.83-23.66-.53-3.2-1.36-6.43-3.68-8.84C64 40.47 62 39.41 61.51 37c-.34-1.67-.56-3.38-.78-5.07a62.1 62.1 0 0 1-.54-6.39 13.57 13.57 0 0 1 .08-2c0-.22.24-.46 0-.24.13-.14.24-.16.56-.23 2.74-.62 7.09 1.46 9.26-1a5.77 5.77 0 0 0 1-4.29c-.09-1.9-3.09-1.92-2.96.01z" fill="currentColor"/><path d="M57.26 21.51A8.51 8.51 0 0 0 55.19 24c-.86 1.62-.58 3.36-.45 5.11s.29 3.58.5 5.36a21.85 21.85 0 0 0 .7 4.33 9.15 9.15 0 0 0 2.68 3.89 14.93 14.93 0 0 1 3.06 3.14c.14.23.5.93.49.92-.08-.18.12.3.15.38s.16.44.23.67a22.14 22.14 0 0 1 .66 2.67 77.44 77.44 0 0 1 1.05 14.4c0 5.15-.17 10.29-.5 15.42-.13 2.13-.29 4.25-.48 6.38-.06.66-.13 1.32-.2 2 0 .13-.12.87 0 .45s0 .06 0 .17c-.48 2.35 3.13 3.36 3.62 1a58.5 58.5 0 0 0 .75-7.71c.35-4.83.57-9.68.63-14.52a108.12 108.12 0 0 0-.65-15.27 32.85 32.85 0 0 0-1.18-6 12.91 12.91 0 0 0-4-6c-1.12-1-2.33-1.88-2.73-3.38a29.94 29.94 0 0 1-.67-4.81c-.19-2-.43-4-.46-6a3.36 3.36 0 0 1 1.58-2.45 1.89 1.89 0 0 0 0-2.65 1.92 1.92 0 0 0-2.65 0zM67.4 17.79l.09 1a3.09 3.09 0 0 1 0 .43v-.4a.2.2 0 0 1 0 .11l.15-.36c0 .11-.11.21-.16.32a7.8 7.8 0 0 0-.45 1.31 1.56 1.56 0 0 0 .15 1.16 1.52 1.52 0 0 0 .9.69 1.49 1.49 0 0 0 1.15-.15A1.55 1.55 0 0 0 70 21a7.49 7.49 0 0 1 .28-.92l-.15.36.15-.29a2 2 0 0 0 .27-.94 3.09 3.09 0 0 0 0-.43l-.09-1a1.64 1.64 0 0 0-.46-1.05 1.52 1.52 0 0 0-1.06-.44 1.5 1.5 0 0 0-1.07.44 1.43 1.43 0 0 0-.43 1.06z" fill="currentColor"/><path d="M64.43 17.83v.08l-.19-.45a2.51 2.51 0 0 1 .12.49l-.07-.5a14.19 14.19 0 0 1-.07 3.19 1.86 1.86 0 0 0 .59 1.36 1.92 1.92 0 0 0 1.32.55 1.88 1.88 0 0 0 1.33-.55l.29-.38a1.86 1.86 0 0 0 .26-.95c.06-.55.09-1.1.11-1.66s0-.84 0-1.25a4.26 4.26 0 0 0-.44-1.79 1.87 1.87 0 0 0-2.56-.67 1.87 1.87 0 0 0-.87 1.12 2 2 0 0 0 .19 1.44zM57.756 21.376l1.868-.938.938 1.868-1.868.938z" fill="currentColor"/></svg>