<svg width="70" height="60" viewBox="0 0 70 72" fill="none" xmlns="http://www.w3.org/2000/svg">
<path d="M61.075 33C61.1923 33.9954 61.2507 34.9973 61.25 36C61.25 41.3401 59.7105 46.5603 56.8261 51.0004C53.9417 55.4405 49.842 58.9012 45.0454 60.9447C40.2489 62.9883 34.9709 63.523 29.8789 62.4812C24.7869 61.4394 20.1096 58.8679 16.4385 55.0919C12.7673 51.3159 10.2673 46.5049 9.2544 41.2674C8.24154 36.0299 8.76137 30.6012 10.7482 25.6675C12.735 20.7339 16.0995 16.5171 20.4163 13.5503C24.7331 10.5835 29.8083 9 35 9C39.0646 9.03902 43.0624 10.067 46.6667 12" stroke="#1BA904" stroke-width="5" stroke-linecap="round" stroke-linejoin="round"/>
<path d="M61.2499 15L34.9999 42L23.3333 30" stroke="#1BA904" stroke-width="5" stroke-linecap="round" stroke-linejoin="round"/>
</svg>
