<svg width="75" height="60" viewBox="0 0 78 78" fill="none" xmlns="http://www.w3.org/2000/svg">
<path d="M46.0253 45.3898L29.4316 30.0889C20.388 21.0324 33.58 3.4983 46.0253 17.6827C58.4706 3.53966 71.7871 21.0737 62.619 30.0889L46.0253 45.3898Z" stroke="#1BA904" stroke-width="4" stroke-linecap="round" stroke-linejoin="round"/>
<path d="M11.8983 55.5254L21.982 64.1404C23.4651 65.4079 25.3347 66.1017 27.2653 66.1017H53.8497C55.7486 66.1017 57.2881 64.5233 57.2881 62.5764C57.2881 58.6822 54.2091 55.5254 50.4109 55.5254H31.9288" stroke="#1BA904" stroke-width="4" stroke-linecap="round" stroke-linejoin="round"/>
<path d="M24.2612 51.5029L27.3519 54.6589C29.0589 56.4018 31.8264 56.4018 33.5334 54.6589C35.2403 52.916 35.2403 50.0899 33.5334 48.347L28.7357 43.448C27.19 41.8697 25.0937 40.983 22.9078 40.983H11.8983" stroke="#1BA904" stroke-width="4" stroke-linecap="round" stroke-linejoin="round"/>
</svg>
