<svg width="75" height="60" viewBox="0 0 75 60" fill="none" xmlns="http://www.w3.org/2000/svg">
<path fill-rule="evenodd" clip-rule="evenodd" d="M44.5835 44.4238C47.172 47.2295 47.7708 51.5215 45.7758 55.0183C43.3308 59.304 37.9157 60.7724 33.6808 58.298C29.4459 55.8237 27.995 50.3436 30.44 46.058C32.4287 42.5721 36.3824 40.9501 40.0677 41.7976L51.2711 21.8061C51.5549 21.2997 52.1906 21.1219 52.691 21.4091L55.4093 22.9692C55.9097 23.2565 56.0853 23.8998 55.8015 24.4062L44.5835 44.4238ZM39.9308 47.3429C41.6746 48.3617 42.272 50.6182 41.2653 52.3829C40.2585 54.1476 38.0288 54.7522 36.285 53.7334C34.5412 52.7146 33.9438 50.4581 34.9505 48.6934C35.9573 46.9287 38.187 46.3241 39.9308 47.3429Z" fill="#1BA904"/>
<path d="M0.571579 45.0504C0.753466 46.0926 0.978613 47.1281 1.2468 48.1541C1.54109 49.28 2.72273 49.8848 3.81713 49.5246L28.1815 41.5057C29.2755 41.1456 29.8433 39.9494 29.7886 38.7866C29.7633 38.2492 29.7922 37.7088 29.876 37.1739C29.9812 36.5015 30.1714 35.848 30.4403 35.2291L30.4447 35.2189C30.6678 34.7072 30.9447 34.2191 31.2718 33.7635C31.9965 32.7541 32.947 31.9326 34.0455 31.3662C35.144 30.7997 36.3594 30.5045 37.5923 30.5045C38.4768 30.5045 39.3524 30.6565 40.1822 30.9515C40.725 31.1445 41.3508 30.9457 41.612 30.4269L43.0307 27.6091C43.2919 27.0904 43.0894 26.4513 42.5575 26.2293C40.9859 25.5732 39.2991 25.2337 37.5923 25.2337C35.5375 25.2337 33.5118 25.7258 31.6809 26.6699C29.8501 27.6139 28.266 28.9831 27.0582 30.6654C25.8504 32.3477 25.0532 34.2955 24.7318 36.3493C24.6907 36.6118 24.6575 36.8751 24.6322 37.1389L5.58144 43.4031C5.07748 40.0772 5.08251 36.6819 5.6059 33.3377C6.40308 28.2441 8.38017 23.4137 11.3755 19.2416C14.3708 15.0694 18.2994 11.6739 22.8399 9.3326C27.3804 6.99133 32.404 5.7708 37.5 5.7708C42.596 5.7708 47.6196 6.99133 52.1601 9.33259C56.7006 11.6739 60.6292 15.0694 63.6245 19.2416C66.6198 23.4137 68.5969 28.2441 69.3941 33.3377C69.9175 36.6819 69.9225 40.0772 69.4186 43.4031L53.9278 38.3094C53.4442 38.1504 52.9179 38.368 52.6825 38.8241L51.2156 41.667C50.9173 42.2451 51.2041 42.9559 51.8171 43.1575L71.1832 49.5254C72.2775 49.8852 73.4588 49.2804 73.753 48.1547C74.0213 47.1284 74.2465 46.0928 74.4284 45.0504C75.1496 40.9184 75.1907 36.6815 74.5383 32.5131C73.6125 26.598 71.3166 20.9885 67.8381 16.1435C64.3597 11.2984 59.7975 7.35517 54.5246 4.63628C49.2518 1.91739 43.4179 0.5 37.5 0.5C31.5821 0.5 25.7482 1.91739 20.4754 4.63628C15.2025 7.35517 10.6403 11.2984 7.16186 16.1435C3.68342 20.9886 1.38745 26.598 0.461691 32.5131C-0.190696 36.6815 -0.149577 40.9184 0.571579 45.0504Z" fill="#1BA904"/>
</svg>
