<svg width="108" height="89" viewBox="0 0 108 89" fill="none" xmlns="http://www.w3.org/2000/svg">
<g clip-path="url(#clip0_17_100)">
<path d="M84.2727 22.8857H4.09091C1.83156 22.8857 0 24.7832 0 27.1238V61.0286C0 63.3692 1.83156 65.2667 4.09091 65.2667H84.2727C86.5321 65.2667 88.3636 63.3692 88.3636 61.0286V27.1238C88.3636 24.7832 86.5321 22.8857 84.2727 22.8857Z" fill="#1BA904"/>
<path d="M87.5455 65.2667C98.8422 65.2667 108 55.7794 108 44.0762C108 32.373 98.8422 22.8857 87.5455 22.8857C76.2488 22.8857 67.0909 32.373 67.0909 44.0762C67.0909 55.7794 76.2488 65.2667 87.5455 65.2667Z" fill="#1BA904"/>
<path d="M23.7273 44.0762C23.7273 52.9762 17.8663 54.2476 10.6364 54.2476C10.6364 35.5454 10.6364 49.6937 10.6364 44.0762C10.6364 38.4587 10.6364 50.3103 10.6364 33.9048C17.8663 33.9048 23.7273 36.0238 23.7273 44.0762Z" fill="white"/>
<path d="M97.3636 44.0762C97.3636 52.9762 91.503 54.2476 84.2727 54.2476C84.2727 35.5454 84.2727 49.6937 84.2727 44.0762C84.2727 38.4587 84.2727 50.3103 84.2727 33.9048C91.503 33.9048 97.3636 36.0238 97.3636 44.0762Z" fill="white"/>
<path d="M65.3973 65.2667L61.6745 61.5287C57.9709 64.4558 53.5418 65.9194 48.3873 65.9194C45.2945 65.9194 42.6027 65.4051 40.3118 64.3767C38.0209 63.3087 36.2454 61.8254 34.9854 59.9267C33.7636 57.9885 33.1527 55.7338 33.1527 53.1627C33.1527 50.5521 33.8209 48.1985 35.1573 46.1021C36.5318 43.9661 38.5746 42.2256 41.2854 40.8807C40.2927 39.615 39.5863 38.4085 39.1663 37.2614C38.7464 36.0747 38.5363 34.7891 38.5363 33.4047C38.5363 31.427 39.0327 29.6271 40.0254 28.0054C41.0181 26.3836 42.45 25.1178 44.3209 24.2081C46.23 23.2587 48.4827 22.7841 51.0791 22.7841C53.7136 22.7841 55.9473 23.2785 57.78 24.2674C59.6127 25.2563 60.9873 26.5814 61.9036 28.2427C62.82 29.9041 63.24 31.7236 63.1636 33.7014H53.9427C53.9809 32.6334 53.7136 31.8225 53.1409 31.2687C52.6064 30.6754 51.8809 30.3787 50.9645 30.3787C50.0482 30.3787 49.2846 30.6556 48.6736 31.2094C48.0627 31.7631 47.7573 32.4751 47.7573 33.3454C47.7573 34.1761 48.0054 35.0463 48.5018 35.9561C49.0363 36.8658 49.8573 37.9141 50.9645 39.1007L60.7582 49.0094C60.8345 48.8116 60.93 48.5743 61.0445 48.2974C61.1973 48.0205 61.35 47.7041 61.5027 47.3481L63.6218 43.6101H73.4154L70.6663 48.7721C69.6354 51.1058 68.4518 53.321 67.1154 55.4174L76.7945 65.2667H65.3973ZM48.8454 57.7314C51.4036 57.7314 53.6754 56.9798 55.6609 55.4767L46.7263 46.5174C43.9773 47.981 42.6027 49.9587 42.6027 52.4507C42.6027 53.9538 43.1564 55.2196 44.2636 56.2481C45.4091 57.237 46.9364 57.7314 48.8454 57.7314Z" fill="white"/>
</g>
<defs>
<clipPath id="clip0_17_100">
<rect width="108" height="89" fill="white"/>
</clipPath>
</defs>
</svg>
